<?xml version="1.0" standalone="no"?>
<!DOCTYPE svg PUBLIC "-//W3C//DTD SVG 1.1//EN" "http://www.w3.org/Graphics/SVG/1.1/DTD/svg11.dtd" >
<svg xmlns="http://www.w3.org/2000/svg">
<metadata>Generated by IcoMoon</metadata>
<defs>
<font id="icomoon" horiz-adv-x="1024">
<font-face units-per-em="1024" ascent="960" descent="-64" />
<missing-glyph horiz-adv-x="1024" />
<glyph unicode="&#x20;" horiz-adv-x="512" d="" />
<glyph unicode="&#xe600;" glyph-name="block" d="M190.945 936.919h625.111v-904.192h-625.111v904.192z" />
<glyph unicode="&#xe613;" glyph-name="line" d="M160.358 32.717h686.305v-52.716h-686.305v52.716z" />
<glyph unicode="&#xe616;" glyph-name="clock2" d="M546.519 410.45v193.27c0 19.108-15.452 34.601-34.519 34.601-19.057 0-34.519-15.493-34.519-34.601v-207.596c0-9.175 3.635-17.981 10.117-24.463l103.557-103.803c6.738-6.758 15.575-10.138 24.412-10.127 8.827 0 17.674 3.379 24.402 10.127 13.486 13.507 13.486 35.42 0 48.927l-93.45 93.665zM512 776.714c-209.715 0-379.73-170.404-379.73-380.59s170.015-380.58 379.73-380.58c209.725 0 379.74 170.394 379.74 380.58s-170.015 380.59-379.74 380.59zM512 84.736c-171.581 0-310.692 139.407-310.692 311.378s139.1 311.388 310.692 311.388c171.592 0 310.692-139.418 310.692-311.388 0-171.96-139.1-311.378-310.692-311.378z" />
<glyph unicode="&#xe617;" glyph-name="facebook" d="M534.18 113.797v326.963h117.719l17.644 127.437h-135.363v81.357c0 36.884 10.977 62.024 67.738 62.024l72.376 0.041v113.961c-12.524 1.556-55.48 5.018-105.482 5.018-104.356 0-175.8-59.382-175.8-168.438v-93.962h-118.016v-127.437h118.026v-326.963h141.158z" />
<glyph unicode="&#xe618;" glyph-name="google+" d="M527.862 260.782c0 6.083-0.645 11.817-2.161 17.418-1.3 5.683-2.478 10.66-3.85 15.401-1.434 4.823-4.096 9.8-7.66 14.94-3.502 5.202-6.4 9.636-8.96 13.056-2.55 3.584-6.431 7.864-11.377 12.759-5.233 4.977-9.083 8.479-11.776 10.957-3.072 2.58-7.67 6.164-13.896 11.203-6.615 4.762-10.875 8.1-13.261 9.585-2.591 1.864-7.455 5.284-14.623 10.179-6.769 4.659-10.988 7.864-12.933 8.776-4.506 0.696-11.919 1.024-21.391 1.024-15.647 0-30.945-1.096-45.742-3.041-14.776-2.099-30.587-5.519-46.316-10.803-16.179-4.977-30.095-11.735-42.66-19.681-11.786-8.161-21.576-18.985-29.338-32.205-8.008-13.763-11.428-29.164-11.428-46.418 0-19.456 4.506-36.803 15.084-52.122 10.322-15.483 23.429-27.382 39.916-36.239 16.466-8.643 33.72-15.319 52.029-19.517 17.848-4.28 36.362-6.543 54.753-6.543 16.609 0 32.932 1.802 48.026 5.304 15.534 3.799 30.095 9.236 43.459 16.855 13.804 7.639 24.32 18.196 32.379 31.744 7.69 13.466 11.725 29.164 11.725 47.37zM476.406 632.003c0 17.336-2.468 35.461-7.332 54.897-4.864 19.456-11.54 38.195-20.357 56.238-8.55 18.125-20.941 33.065-36.342 44.964-15.114 11.663-32.215 17.644-51.333 17.644-26.819 0-47.145-10.097-62.044-29.778-14.776-19.917-21.955-43.643-21.955-71.076 0-13.619 1.761-27.617 4.823-42.619 3.348-14.94 8.571-29.942 15.34-44.8 6.922-14.858 14.817-28.539 24.054-40.284 9.462-11.981 20.49-21.637 33.71-29.256 13.107-7.137 27.208-11.121 42.138-11.121 27.802 0 47.749 8.643 60.211 26.061 12.636 17.408 19.087 40.346 19.087 69.13zM419.533 836.536h188.467l-58.143-34.058h-58.368c20.552-12.923 36.362-30.72 47.462-54.057 11.018-23.316 16.681-47.524 16.681-72.858 0-21.238-3.338-40.223-9.759-56.617-6.482-16.425-14.52-29.962-24.033-39.66-9.329-10.363-19.036-19.456-28.375-27.945-9.738-8.458-17.633-17.265-24.013-26.44-7.035-9.021-10.107-18.575-10.107-29 0-7.475 2.202-14.705 6.881-21.862 4.895-7.383 11.192-14.244 18.719-20.756 7.762-6.543 15.964-13.455 25.457-20.756 8.909-7.076 18.125-15.176 27.351-23.88 9.226-8.724 17.705-18.125 24.934-28.324 7.905-10.26 14.254-22.538 18.616-36.536 4.669-14.316 7.055-29.563 7.055-46.141 0-45.722-19.866-86.241-60.334-121.395-43.284-37.478-103.895-56.463-180.828-56.463-16.609 0-34.048 1.556-51.569 4.444-17.367 2.796-34.959 7.7-52.357 14.459-17.551 6.615-33.167 15.002-46.95 24.965-13.179 9.718-24.32 22.559-32.799 38.195-8.888 15.944-12.995 33.28-12.995 52.419 0 17.418 5.171 36.864 15.841 58.081 8.96 18.596 23.173 34.243 41.411 47.677 18.432 13.302 39.066 23.501 62.239 30.638 23.173 7.004 45.64 12.145 67.021 15.483 21.33 3.205 42.639 5.222 64.594 5.765-18.647 24.044-27.802 45.261-27.802 64.236 0 3.256 0.266 6.84 1.106 10.035 0.522 3.42 1.055 5.98 2.232 8.325 0.87 2.324 1.792 5.601 3.267 9.4 1.597 3.82 2.55 7.004 2.918 9.257-11.551-1.556-21.268-2.181-30.116-2.181-42.557 0-79.596 14.080-109.967 42.322-30.433 28.14-45.67 63.375-45.67 105.677 0 40.438 13.578 76.462 40.899 108.257 26.9 31.58 60.488 51.804 100.577 60.682 26.993 5.898 54.016 8.612 80.456 8.612zM867.359 726.415v-55.060h-110.582v-110.438h-55.235v110.438h-109.742v55.060h109.742v110.121h55.245v-110.121h110.572z" />
<glyph unicode="&#xe619;" glyph-name="instagram" d="M787.292 533.34h-62.413c4.536-17.664 7.229-36.096 7.229-55.163 0-121.836-98.734-220.559-220.539-220.559s-220.539 98.724-220.539 220.559c0 19.057 2.703 37.499 7.24 55.163h-62.403v-303.299c0-15.196 12.339-27.535 27.587-27.535h496.22c15.258 0 27.607 12.339 27.607 27.535v303.299zM787.292 726.303c0 15.217-12.349 27.556-27.607 27.556h-82.678c-15.227 0-27.566-12.339-27.566-27.556v-82.719c0-15.217 12.339-27.556 27.566-27.556h82.678c15.258 0 27.607 12.339 27.607 27.556v82.719zM511.57 616.018c-76.134 0-137.851-61.696-137.851-137.841 0-76.124 61.716-137.861 137.851-137.861s137.861 61.737 137.861 137.861c0 76.145-61.727 137.841-137.861 137.841zM787.292 119.757h-551.424c-45.66 0-82.688 37.038-82.688 82.739v551.363c0 45.681 37.028 82.698 82.688 82.698h551.424c45.67 0 82.688-37.018 82.688-82.698v-551.363c0-45.701-37.018-82.739-82.688-82.739z" />
<glyph unicode="&#xe61a;" glyph-name="linkedIn" d="M863.683 392.643v-265.001h-153.631v247.235c0 62.116-22.231 104.499-77.844 104.499-42.455 0-67.707-28.559-78.828-56.197-4.055-9.882-5.089-23.624-5.089-37.458v-258.079h-153.672c0 0 2.068 418.765 0 462.162h153.672v-65.516c-0.307-0.481-0.707-1.024-1.014-1.495h1.014v1.495c20.408 31.437 56.873 76.36 138.476 76.36 101.12-0.010 176.916-66.068 176.916-208.005zM233.851 812.585c-52.582 0-86.968-34.499-86.968-79.841 0-44.36 33.403-79.903 84.931-79.903h1.034c53.586 0 86.917 35.543 86.917 79.903-1.014 45.332-33.331 79.841-85.914 79.841zM156.006 127.642h153.631v462.162h-153.631v-462.162z" />
<glyph unicode="&#xe61b;" glyph-name="up" d="M889.917 393.175l-360.018 307.62-359.864-307.61-60.375 63.109 420.219 359.209 420.403-359.199z" />
<glyph unicode="&#xe61c;" glyph-name="line2" d="M248.955 286.034h562.043v-170.23h-562.043v170.23z" />
<glyph unicode="&#xe61f;" glyph-name="button" d="M702.607 414.28l35.154-102.246h-415.58l35.154 102.246h345.272zM731.843 455.25h-403.732l-63.324-184.177h530.371l-63.314 184.177z" />
<glyph unicode="&#xe622;" glyph-name="phone-outline" d="M636.6 91.515c39.352 0 77.292 12.872 112.742 38.298l30.956 22.149c9.318 6.646 18.524 20.849 9.37 50.637-12.841 41.708-68.854 125.082-108.677 125.082-6.298 0-12.288-1.894-17.285-5.448l-30.996-22.221c-32.481-23.296-56.535-19.927-79.237 13.24l-127.375 185.979c-11.151 16.292-15.616 30.956-13.312 43.633 2.304 12.841 11.827 25.303 28.273 37.079l30.996 22.18c9.103 6.523 18.033 20.47 8.929 49.951-14.029 45.517-77.169 138.209-117.268 138.209-6.175 0-11.981-1.823-16.855-5.315l-30.986-22.19c-99.369-71.137-113.285-196.127-34.662-311.020l170.455-248.924c48.445-70.758 115.835-111.319 184.934-111.319zM755.384 181.678l-27.904-19.958c-28.928-20.726-59.515-31.252-90.88-31.252-56.484 0-112.507 34.529-153.713 94.7l-170.476 248.945c-54.579 79.698-67.891 190.024 25.303 256.748l27.822 19.917c22.477-8.612 80.548-93.358 81.326-119.132l-27.638-19.784c-24.934-17.838-39.66-38.625-43.899-61.85-4.239-23.357 2.345-47.964 19.569-73.124l127.365-185.958c34.355-50.125 82.094-58.767 132.321-22.815l28.006 20.091c6.728-3.103 24.596-18.196 44.616-47.391 19.763-28.877 27.576-51.026 28.18-59.136z" />
<glyph unicode="&#xe623;" glyph-name="uniE623" d="M516.567 879.114c-207.903 0-376.463-168.858-376.463-377.149 0-154.429 92.713-287.089 225.341-345.426-1.065 26.337-0.195 57.938 6.554 86.61 7.24 30.607 48.445 205.476 48.445 205.476s-12.032 24.084-12.032 59.679c0 55.89 32.338 97.628 72.612 97.628 34.243 0 50.78-25.764 50.78-56.627 0-34.499-21.955-86.067-33.26-133.837-9.431-40.008 20.029-72.643 59.423-72.643 71.342 0 119.368 91.761 119.368 200.509 0 82.668-55.583 144.538-156.641 144.538-114.196 0-185.344-85.309-185.344-180.603 0-32.87 9.667-56.033 24.832-73.984 6.963-8.253 7.926-11.54 5.396-21.012-1.802-6.953-5.949-23.665-7.67-30.28-2.499-9.544-10.24-12.954-18.842-9.421-52.593 21.494-77.107 79.196-77.107 144.067 0 107.131 90.194 235.612 269.056 235.612 143.718 0 238.305-104.212 238.305-216.054 0-147.958-82.104-258.478-203.121-258.478-40.653 0-78.879 22.016-91.976 47.022 0 0-21.852-86.886-26.481-103.67-7.977-29.082-23.593-58.153-37.878-80.804 33.853-10.015 69.622-15.462 106.68-15.462 207.903 0 376.443 168.837 376.443 377.149 0.020 208.292-168.52 377.16-376.422 377.16z" />
<glyph unicode="&#xe624;" glyph-name="uniE624" d="M752.886 637.788c-44.503 18.227-95.631-2.488-114.166-46.275s2.519-94.075 47.073-112.282c44.503-18.237 95.621 2.478 114.166 46.264 18.534 43.786-2.54 94.065-47.073 112.292zM792.228 705.26l-18.371 7.516-23.992-56.73 18.35-7.516zM688.814 460.954l-18.35 7.526-24.013-56.74 18.35-7.496zM818.524 528.476l-7.66-18.043 57.682-23.613 7.629 18.033zM570.132 630.19l-7.639-18.053 57.672-23.613 7.629 18.053zM811.039 606.249l7.588-18.084 57.743 23.429-7.557 18.063zM569.866 487.342l57.764 23.419-7.578 18.074-57.754-23.419zM791.685 411.484l-23.818 56.812-18.371-7.444 23.808-56.812zM689.162 656.159l-23.788 56.801-18.381-7.444 23.808-56.801zM799.375 623.462l76.902 75.704-14.049 13.814-76.913-75.704zM785.367 479.775l76.984-75.653 14.049 13.824-76.984 75.653zM576.43 403.999l76.933 75.725-14.060 13.814-76.923-75.704zM653.312 637.225l-76.995 75.653-14.039-13.824 76.964-75.663zM931.441 568.361l-108.82-0.041 0.020-19.558 108.81 0.041zM729.354 349.88l-0.020 107.028-19.896-0.010 0.031-107.028zM507.228 568.218h108.81v-19.558h-108.81v19.558zM709.325 767.119l0.020-107.028h19.896l-0.041 107.039zM922.45 173.865c-29.757 0-59.279 13.824-83.149 38.902-10.158 10.691-18.442 22.548-24.463 34.683-5.437-11.971-12.913-23.654-22.067-34.089-22.036-25.17-49.981-39.045-78.694-39.045-44.001 0-84.49 33.874-103.619 71.946-15.729-37.407-50.063-71.946-97.444-71.946-48.148 0-83.948 34.529-100.751 71.485-16.732-36.956-52.388-71.485-100.321-71.485-29.338 0-57.498 13.844-79.299 39.004-8.53 9.81-15.565 20.756-20.828 32.102-17.551-38.431-55.552-71.096-100.936-71.096-68.475-0.020-110.879 60.303-110.879 116.173h21.187c0-42.26 36.055-87.532 89.692-87.532 54.221 0 90.194 52.675 90.194 87.532h21.197c0-30.853 34.048-87.532 89.672-87.532 52.029 0 89.692 52.285 89.692 87.532h21.197c0-30.853 34.232-87.532 90.173-87.532 56.371 0 85.873 56.996 85.873 87.532h21.197c0-29.952 39.68-87.532 93.993-87.532 54.774 0 89.702 57.477 89.702 87.532h21.176c0-30.095 41.175-87.982 97.495-87.982 51.579 0 82.381 32.901 82.381 87.982h21.197c0.010-71.926-39.67-116.634-103.567-116.634zM922.45-2.796c-29.757 0-59.279 13.824-83.149 38.902-10.158 10.68-18.442 22.548-24.463 34.683-5.437-11.981-12.913-23.654-22.067-34.099-22.036-25.17-49.981-39.045-78.694-39.045-44.001 0-84.49 33.843-103.619 71.936-15.729-37.407-50.063-71.936-97.444-71.936-48.148 0-83.948 34.509-100.751 71.465-16.732-36.956-52.388-71.465-100.321-71.465-29.338 0-57.498 13.834-79.299 38.963-8.53 9.851-15.565 20.797-20.828 32.143-17.551-38.431-55.552-71.096-100.936-71.096-68.475-0.010-110.879 60.283-110.879 116.173h21.187c0-42.281 36.055-87.542 89.692-87.542 54.221 0 90.194 52.685 90.194 87.542h21.197c0-30.863 34.048-87.542 89.672-87.542 52.029 0 89.692 52.285 89.692 87.542h21.197c0-30.863 34.232-87.542 90.173-87.542 56.371 0 85.873 56.975 85.873 87.542h21.197c0-29.983 39.68-87.542 93.993-87.542 54.774 0 89.702 57.477 89.702 87.542h21.176c0-30.116 41.175-88.003 97.495-88.003 51.579 0 82.381 32.901 82.381 88.003h21.197c0.010-71.926-39.67-116.623-103.567-116.623z" />
<glyph unicode="&#xe625;" glyph-name="pool" d="M1027.502 93c-17.828-7.209-35.635-14.387-57.006-14.387-42.752 0-71.25 28.785-114.002 28.785-42.762 0-71.25-28.785-114.002-28.785s-71.26 28.785-114.012 28.785-71.24-28.785-114.002-28.785c-42.752 0-71.25 28.785-114.002 28.785s-71.26-28.785-114.012-28.785c-42.752 0-71.25 28.785-114.002 28.785s-71.24-28.785-114.002-28.785c-21.381 0-39.188 7.158-57.006 14.367v-86.374c17.797-7.188 35.615-14.356 56.996-14.356 42.762 0 71.25 28.795 114.002 28.795s71.26-28.795 114.002-28.795c42.752 0 71.25 28.795 114.022 28.795 42.752 0 71.26-28.795 114.002-28.795 42.752 0 71.24 28.795 114.012 28.795 42.752 0 71.24-28.795 114.012-28.795 42.752 0 71.229 28.795 113.992 28.795 42.742 0 71.24-28.795 114.012-28.795 21.361 0 39.168 7.188 56.996 14.387v86.364zM1027.502 265.697c-17.828-7.188-35.635-14.387-57.006-14.387-42.752 0-71.25 28.764-114.002 28.764-42.762 0-71.25-28.764-114.002-28.764s-71.26 28.764-114.012 28.764-71.24-28.764-114.002-28.764c-42.752 0-71.25 28.764-114.002 28.764s-71.26-28.764-114.012-28.764c-42.752 0-71.25 28.764-114.002 28.764s-71.24-28.764-114.002-28.764c-21.381 0-39.188 7.148-57.006 14.346v-86.354c17.807-7.168 35.625-14.346 57.006-14.346 42.762 0 71.25 28.764 114.002 28.764s71.26-28.764 114.002-28.764c42.742 0 71.25 28.764 114.012 28.764s71.25-28.764 114.002-28.764c42.762 0 71.25 28.764 114.002 28.764s71.26-28.764 114.012-28.764 71.24 28.764 114.002 28.764c42.752 0 71.25-28.764 114.002-28.764 21.371 0 39.178 7.178 57.006 14.387v86.354zM172.452 337.664v28.805h285.010v-43.213c17.818-7.188 35.625-14.387 57.016-14.387 10.199 0 19.517 1.71 28.488 4.188v298.076c0 111.104 89.508 201.472 199.516 201.472 110.029 0 199.496-90.378 199.496-201.472 0-23.869 19.118-43.192 42.742-43.192 23.634 0 42.772 19.323 42.772 43.192 0 158.71-127.867 287.826-285.010 287.826-152.361 0-276.808-121.436-284.303-273.439h-285.010c7.363 104.376 93.594 187.085 198.789 187.085 34.017 0 65.997-8.796 94.044-24.074 15.626 24.74 34.355 47.309 55.736 67.021-43.592 27.361-94.802 43.397-149.78 43.397-157.153 0.010-285.020-129.106-285.020-287.816v-298.056c28.631 7.967 52.961 24.586 85.514 24.586zM172.452 539.167h285.010v-86.354h-285.010v86.354z" />
<glyph unicode="&#xe626;" glyph-name="twitter" d="M870.4 670.3c-26.378-11.684-54.723-19.599-84.46-23.142 30.362 18.196 53.678 47.002 64.655 81.357-28.416-16.855-59.894-29.102-93.389-35.676-26.829 28.58-65.055 46.418-107.346 46.418-81.203 0-147.057-65.843-147.057-147.036 0-11.54 1.3-22.764 3.809-33.516-122.225 6.124-230.584 64.676-303.114 153.661-12.657-21.719-19.917-47.002-19.917-73.943 0-51.016 25.969-96.041 65.434-122.399-24.115 0.758-46.787 7.383-66.611 18.381-0.010-0.604-0.010-1.219-0.010-1.843 0-71.26 50.688-130.703 117.965-144.2-12.339-3.359-25.334-5.161-38.738-5.161-9.482 0-18.688 0.922-27.668 2.642 18.708-58.419 73.021-100.936 137.37-102.124-50.33-39.465-113.736-62.956-182.63-62.956-11.878 0-23.583 0.696-35.082 2.058 65.075-41.738 142.387-66.079 225.434-66.079 270.49 0 418.406 224.082 418.406 418.417 0 6.38-0.143 12.718-0.42 19.016 28.723 20.746 53.647 46.643 73.37 76.124z" />
<glyph unicode="&#xe900;" glyph-name="envelope" d="M0 149.334c0-47.146 38.186-85.334 85.334-85.334h853.334c47.146 0 85.334 38.186 85.334 85.334l-0.002 576c0 47.146-38.186 85.334-85.334 85.334l-853.332-0.002c-47.146 0-85.334-38.186-85.334-85.334v-575.998zM314.026 436.694l-195.2 196.48c-16.192 16.214-16.192 42.454 0 58.666 16.234 16.214 42.474 16.214 58.666 0l311.468-311.872c12.586-12.374 33.302-12.374 45.674 0l311.872 311.872c16.214 16.214 42.454 16.214 58.666 0 16.214-16.214 16.214-42.454 0-58.666l-195.414-196.48 195.414-195.178c16.214-16.214 16.214-42.454 0-58.666s-42.454-16.214-58.666 0l-195.2 194.986c0 0-60.992-62.080-72.086-73.174-17.3-16.876-41.194-27.328-67.22-27.328-26.454 0-50.346 10.666-67.626 27.968-11.306 11.094-71.894 72.512-71.894 72.512l-195.008-194.986c-16.192-16.214-42.432-16.214-58.666 0-16.192 16.214-16.192 42.454 0 58.666l195.22 195.2z" />
<glyph unicode="&#xe901;" glyph-name="phone2" d="M1021.7 166.664c-2.836 8.701-21.311 21.579-55.232 38.521-9.161 5.289-22.231 12.61-39.211 21.809-16.98 9.161-32.388 17.708-46.187 25.527-13.837 7.627-26.792 15.178-38.942 22.499-1.916 1.418-7.972 5.673-18.206 12.687-10.119 7.053-18.781 12.227-25.795 15.638s-13.99 5.059-20.774 5.059c-9.659 0-21.733-6.861-36.336-20.698-14.527-13.798-27.865-28.862-39.901-45.075-12.112-16.252-24.991-31.238-38.597-45.113-13.568-13.875-24.722-20.736-33.461-20.736-4.293 0-9.774 1.188-16.405 3.603-6.439 2.453-11.537 4.446-14.91 6.209-3.335 1.648-9.122 5.136-17.401 10.196s-12.879 7.934-13.837 8.394c-66.424 36.796-123.381 79.035-170.871 126.524-47.528 47.49-89.69 104.485-126.524 170.871-0.498 1.035-3.258 5.596-8.356 13.837s-8.509 14.105-10.196 17.478c-1.686 3.411-3.795 8.356-6.209 14.91-2.376 6.516-3.641 11.997-3.641 16.328 0 8.739 6.938 19.893 20.774 33.5 13.798 13.568 28.823 26.409 45.075 38.521 16.213 12.112 31.2 25.489 45.037 39.939 13.875 14.603 20.774 26.677 20.774 36.413 0 6.746-1.686 13.683-5.098 20.698-3.411 7.053-8.624 15.638-15.677 25.834-6.976 10.157-11.23 16.213-12.725 18.206-7.244 12.074-14.757 25.029-22.538 38.827s-16.213 29.283-25.451 46.263c-9.199 16.903-16.482 30.050-21.809 39.249-16.98 33.883-29.782 52.319-38.559 55.232-3.373 1.457-8.471 2.185-15.217 2.185-13.109 0-30.203-2.415-51.246-7.283-21.081-4.791-37.716-9.927-49.866-15.217-24.262-10.234-49.943-39.786-77.118-88.77-24.722-45.535-37.064-90.648-37.064-135.225 0-13.109 0.805-25.795 2.53-38.214 1.686-12.342 4.714-26.294 9.122-41.855 4.37-15.485 7.857-27.022 10.502-34.496 2.683-7.474 7.627-20.966 14.91-40.361s11.652-31.238 13.109-35.646c16.98-47.528 37.103-89.882 60.368-127.291 38.252-61.978 90.495-126.141 156.689-192.335s130.281-118.437 192.335-156.766c37.333-23.227 79.763-43.389 127.253-60.292 4.331-1.457 16.29-5.864 35.684-13.147 19.318-7.244 32.771-12.189 40.322-14.872 7.513-2.721 18.973-6.209 34.496-10.579 15.523-4.331 29.552-7.398 41.855-9.046 12.38-1.725 25.067-2.606 38.137-2.606 44.653 0 89.69 12.419 135.34 37.141 48.908 27.137 78.498 52.856 88.655 77.041 5.366 12.112 10.387 28.785 15.255 49.866 4.868 21.119 7.244 38.176 7.244 51.323 0.077 6.784-0.613 11.844-2.108 15.293v0z" />
<glyph unicode="&#xe902;" glyph-name="search" d="M1001.253 70.148l-211.067 211.067c50.886 73.429 76.329 155.287 76.329 245.527 0 58.657-11.396 114.777-34.188 168.314-22.747 53.537-53.514 99.688-92.279 138.476-38.788 38.765-84.916 69.532-138.453 92.302s-109.657 34.143-168.337 34.143-114.755-11.373-168.314-34.143-99.688-53.537-138.453-92.302c-38.765-38.765-69.555-84.939-92.302-138.476-22.77-53.537-34.166-109.634-34.166-168.314s11.373-114.755 34.166-168.314c22.747-53.514 53.537-99.665 92.302-138.43s84.939-69.532 138.453-92.302c53.537-22.792 109.634-34.166 168.314-34.166 90.263 0 172.12 25.443 245.55 76.307l211.067-210.432c14.749-15.588 33.214-23.404 55.372-23.404 21.32 0 39.807 7.816 55.372 23.404 15.588 15.588 23.381 34.030 23.381 55.35 0.023 21.773-7.545 40.215-22.747 55.395zM628.012 332.011c-53.945-53.945-118.878-80.906-194.777-80.906s-140.809 26.961-194.777 80.906c-53.945 53.967-80.929 118.878-80.929 194.777s26.984 140.832 80.929 194.777c53.945 53.945 118.878 80.929 194.777 80.929s140.809-26.984 194.777-80.929 80.929-118.878 80.929-194.777c0-75.921-26.984-140.809-80.929-194.777z" />
<glyph unicode="&#xe903;" glyph-name="share" d="M820.396 236.16c-39.039 0-73.984-15.317-100.608-39.466l-366.636 213.248c2.646 11.818 4.693 23.723 4.693 36.011s-2.090 24.15-4.693 36.011l362.496 211.244c27.648-25.6 64.213-41.599 104.747-41.599 85.461 0 154.326 68.736 154.326 154.197 0 85.289-68.908 154.195-154.326 154.195-85.291 0-154.197-68.906-154.197-154.154 0-12.458 2.090-24.15 4.693-36.011l-362.498-211.413c-27.691 25.727-64.213 41.685-104.79 41.685-85.461 0-154.326-68.865-154.326-154.154s68.865-154.197 154.326-154.197c40.533 0 77.1 16.001 104.747 41.599l365.995-213.718c-2.517-10.881-4.097-22.229-4.097-33.537 0-82.774 67.455-150.102 150.102-150.102 82.731 0 150.229 67.286 150.229 150.102s-67.453 150.059-150.184 150.059z" />
<glyph unicode="&#xe904;" glyph-name="logo" d="M510.587 491.284c-11.919-16.671-26.808-31.058-43.786-42.506 17.777-12.554 33.004-28.406 44.851-46.674 11.817 17.234 26.655 32.195 43.827 44.124-17.623 12.083-32.87 27.351-44.892 45.056zM435.814 407.511l19.804 34.335c-24.689-13.947-53.176-21.975-83.507-21.975-34.929 0-67.43 10.629-94.525 28.733l23.747-41.093c-31.119-21.443-51.558-57.334-51.558-97.935 0-65.505 53.258-118.835 118.815-118.835 65.475 0 118.774 53.33 118.774 118.835-0.010 40.602-20.46 76.493-51.548 97.935zM372.101 471.624c40.571 0 76.411 20.419 97.864 51.569l32.379-18.719c-13.548 24.463-21.268 52.521-21.268 82.432 0 34.468 10.342 66.56 27.996 93.43l-39.117-22.641c-21.453 31.15-57.293 51.61-97.864 51.61-65.464 0-118.774-53.309-118.774-118.825 0.010-65.577 53.33-118.856 118.784-118.856zM37.878 921.006v-945.521h945.162v945.521h-945.162zM652.329 135.475c-59.648 0-112.169 30.843-142.664 77.414l44.79 25.876c21.484-31.109 57.334-51.569 97.874-51.569 65.556 0 118.815 53.33 118.815 118.825 0 65.567-53.248 118.835-118.815 118.835-40.54 0-76.39-20.419-97.874-51.569l-38.953 22.518c14.889-25.334 23.542-54.794 23.542-86.252 0-94.024-76.472-170.527-170.465-170.527-94.003 0-170.527 76.513-170.527 170.527 0 59.013 30.188 111.073 75.837 141.701-43.633 30.935-72.253 81.705-72.253 139.182 0 94.034 76.472 170.527 170.465 170.527 58.634 0 110.316-29.768 141.025-74.967 30.935 43.172 81.418 71.424 138.455 71.424 94.024 0 170.465-76.513 170.465-170.547 0-58.040-29.194-109.292-73.585-140.114 44.841-30.781 74.394-82.391 74.394-140.759 0.010-93.993-76.483-170.527-170.527-170.527zM770.365 586.895c0 65.526-53.309 118.825-118.784 118.825-65.536 0-118.856-53.299-118.856-118.825 0-40.581 20.531-76.483 51.62-97.925l-22.077-38.257c26.122 16.374 56.996 25.897 90.061 25.897 32.205 0 62.208-9.134 87.9-24.689l-21.412 37.038c31.119 21.463 51.548 57.364 51.548 97.935z" />
<glyph unicode="&#xe905;" glyph-name="parking" horiz-adv-x="717" d="M161.798 181.561v22.38h-33.084v138.173h17.32l46.706 136.227h330.837l46.706-136.227h17.32v-138.173h-33.084v-44.76h-62.275v44.76h-252.993v-44.76h-62.275v22.38zM521.826 366.44c-0.652 2.627-6.617 20.434-13.623 39.895l-11.677 35.030h-272.454l-12.65-37.949c-7.201-20.434-12.65-38.922-12.65-39.895 0-1.070 68.113-1.751 165.418-1.751h165.418l-1.168 4.768zM45.032 454.015l-23.353 26.272c0 2.433 330.837 291.915 340.567 291.915 3.6 0 340.567-282.184 340.567-291.915-1.168-4.865-46.706-50.599-49.625-49.625-1.46 0.594-66.167 55.464-145.957 126.496-87.574 58.383-155.688 107.035-155.688 107.035-0.545 0-65.194-55.464-145.957-126.496-77.844-58.383-136.227-116.766-136.227-116.766-5.838 0-16.542 9.73-29.191 29.191z" />
<glyph unicode="&#xe906;" glyph-name="luxury-villa" horiz-adv-x="717" d="M46.005 356.71v175.149h603.29v-350.298h-233.532v83.682h-42.814v-83.682h-36.976v83.682h-42.814v-83.682h-252.993v175.149zM134.553 339.195v42.814h-42.814v-85.628h42.814v42.814zM223.1 339.195v42.814h-42.814v-85.628h42.814v42.814zM339.866 339.195v42.814h-42.814v-85.628h42.814v42.814zM419.656 339.195v42.814h-42.814v-85.628h42.814v42.814zM526.692 339.195v42.814h-42.814v-85.628h42.814v42.814zM606.482 339.195v42.814h-42.814v-85.628h42.814v42.814zM139.418 446.23v42.814h-42.814v-85.628h42.814v42.814zM227.965 446.23v42.814h-42.814v-85.628h42.814v42.814zM344.731 446.23v42.814h-42.814v-85.628h42.814v42.814zM424.521 446.23v42.814h-42.814v-85.628h42.814v42.814zM531.557 446.23v42.814h-42.814v-85.628h42.814v42.814zM611.347 446.23v42.814h-42.814v-85.628h42.814v42.814zM27.517 553.266c0 0.72 5.157 2.335 72.979 23.353 19.461 6.13 63.248 19.461 97.305 30.165l116.766 36.003c30.165 9.244 54.491 17.515 55.464 17.515 1.168 0.691 38.922-11.677 165.418-52.545 90.494-29.191 165.418-53.518 165.418-53.518 0.749 0 1.362-0.399 1.362-0.885 0-0.594-116.766-0.885-340.567-0.885h-340.567z" />
<glyph unicode="&#xe907;" glyph-name="view-mountain" horiz-adv-x="717" d="M181.259 561.050c-20.434-21.407-45.733-49.625-57.41-63.248-11.677-14.596-22.38-26.272-24.326-26.272-1.654 0-20.434-16.542-40.868-36.976l-37.949-36.976 1.654-60.329c1.265-52.545 2.043-62.275 9.049-69.086l8.174-9.049 330.837 0.409c272.454 0.409 330.837 1.654 330.837 6.13 3.698 9.049-9.049 29.191-40.868 62.275-16.542 17.515-51.572 60.329-77.844 96.332-54.491 73.952-70.060 89.521-81.736 89.521-6.13 0-25.299-16.542-58.383-49.625s-52.545-49.625-58.383-49.625c-6.13 0-14.596 7.395-27.245 23.353-10.704 13.623-23.353 29.191-28.218 36.003-5.741 7.006-23.353 33.084-39.895 57.41-55.464 84.655-58.383 84.655-107.035 30.165zM258.13 523.101c10.704-15.569 35.030-50.599 54.491-76.871 53.518-73.952 50.599-70.060 41.841-75.898-9.049-7.006-39.895-2.822-65.194 8.174-10.704 4.476-30.165 19.461-44.76 33.084-15.569 13.623-36.976 29.191-49.625 34.057-49.625 21.407-49.625 21.407-15.569 61.302 43.787 52.545 42.814 50.599 51.572 47.679 4.087-1.654 16.542-15.569 27.245-31.138zM540.314 425.796c15.569-21.407 31.138-43.787 34.057-49.625 5.741-10.704 5.352-11.677-6.519-21.407-18.488-15.569-34.057-22.38-57.41-25.299-17.515-2.043-24.326 0-52.545 12.65-17.515 8.174-36.003 15.569-40.868 17.515-14.596 4.087-11.677 17.515 10.704 38.922l43.787 44.76c16.542 17.515 26.272 25.299 32.111 24.326 4.963-0.827 19.461-16.542 36.976-39.895zM297.052 562.023c-4.476-5.352-3.308-8.66 7.006-19.461 15.569-16.542 31.138-39.895 35.030-49.625 4.476-11.677 14.596-12.65 26.272-2.822 8.174 7.784 9.73 13.623 9.73 31.138 0 19.461-1.654 23.353-12.65 34.057s-15.569 12.65-36.976 12.65c-16.542 0-25.299-2.043-29.191-6.13z" />
<glyph unicode="&#xe908;" glyph-name="view-swim" horiz-adv-x="717" d="M288.295 814.043c-24.326-8.66-165.418-78.817-175.149-86.601-15.569-12.65-13.623-31.138 4.281-39.895 12.65-5.546 24.326-1.849 93.413 32.111 56.437 28.218 81.736 36.976 88.547 33.084 7.979-5.546 36.003-70.060 36.976-86.601 0.613-6.13-116.766-80.763-165.418-107.035-34.057-16.542-15.569-22.38 64.221-21.407 61.302 0.613 88.547 4.281 136.227 17.515 32.111 8.66 68.113 17.515 79.79 20.434 11.677 2.433 22.38 7.395 23.353 10.704 0.613 3.698-15.569 33.084-36.976 66.167s-51.572 82.709-69.086 107.035c-33.084 52.545-47.679 62.275-76.871 51.572zM541.287 780.959c-58.383-36.976-52.545-116.766 8.66-155.688 61.302-32.111 136.227 34.057 116.766 97.305-4.281 12.65-12.65 28.218-17.515 34.057-25.299 29.191-75.898 36.976-107.035 15.569zM434.252 498.775c-97.305-29.191-155.688-38.922-214.071-38.922-61.302 0-136.227 15.569-155.688 31.138-6.13 4.963-10.704 5.546-15.569 1.265-7.395-7.395 12.65-26.272 49.625-46.706 89.521-48.652 184.879-48.652 360.028 1.849 66.167 18.488 175.149 20.434 204.34 3.114 51.572-26.272 26.272 14.596-28.218 42.814-28.218 14.596-39.895 17.515-93.413 19.461-51.572 1.265-70.060-0.613-107.035-13.623z" />
<glyph unicode="&#xe909;" glyph-name="view-garden" horiz-adv-x="717" d="M375.869 687.546c-8.368-7.784-70.060-28.218-84.655-28.218-7.201 0-17.515 3.308-24.326 7.201-9.439 5.546-12.65 4.963-16.542-2.822-3.308-5.546-11.677-9.73-18.488-9.73-8.368 0-14.596-3.892-16.542-10.704-1.654-6.13-7.784-12.65-13.623-14.596-12.65-3.892-23.353-28.218-21.407-49.625 1.070-14.596-0.555-16.542-14.596-17.515-20.434-0.555-24.326-6.13-16.542-19.461 5.546-8.855 4.963-13.623-4.963-27.245-6.617-8.855-19.461-18.488-28.218-21.407-8.368-3.308-20.434-14.596-27.245-25.299-6.13-10.704-18.488-23.353-26.272-26.272-8.368-4.379-15.569-12.65-16.542-20.434-1.070-6.617-6.617-14.596-12.65-17.515-17.515-9.73-12.65-30.165 13.623-55.464 13.623-13.623 29.191-32.111 35.030-42.814 9.73-18.488 27.245-24.326 38.922-11.677 3.308 3.308 8.368 4.963 9.73 2.822 6.617-6.617-8.368-32.111-22.38-37.949-15.569-7.201-18.488-26.272-6.13-36.976 6.13-4.963 10.704-2.822 21.407 10.704 8.368 9.439 19.461 16.542 27.245 16.542 7.201 0 22.38 0.555 35.030 1.070 22.38 1.654 22.38 1.654 17.515-12.65-2.822-7.784-11.677-17.515-19.461-21.407-26.272-12.65-74.925-46.706-107.035-72.979l-27.245-26.272 17.515-8.855c23.353-11.677 26.272-10.704 28.218 3.892 2.822 18.488 27.245 16.542 36.976-3.308 3.892-8.368 10.704-14.596 14.596-14.596 7.201 0 36.003 30.165 36.003 37.949 0 7.201 39.895 45.733 44.76 42.814 2.238-1.654 3.308-12.65 1.654-24.326-2.238-16.542 0-22.38 8.855-31.138 11.677-10.704 11.677-10.704 24.326 3.308 7.201 7.784 21.407 16.542 32.111 18.488 16.542 3.892 20.434 2.238 33.084-13.623 18.488-22.38 32.111-79.79 22.38-95.359s-8.855-16.542 24.326-16.542c28.218 0 37.949 5.546 25.299 13.623-6.617 4.476-7.201 62.275-0.555 66.167 2.822 1.654 6.617 11.677 8.368 22.38 2.238 10.704 7.201 21.407 11.677 25.299s8.368 10.704 8.368 14.596c0 10.704 26.272 9.73 32.111 0 2.238-4.476 13.623-14.596 25.299-22.38 20.434-13.623 21.407-13.623 34.057-5.546 11.677 7.784 16.542 7.784 30.165 2.238 22.38-9.439 26.272-3.892 11.677 14.596-6.13 8.368-11.677 18.488-11.677 22.38 0 12.65 21.407 8.855 37.949-6.13 8.368-7.784 19.461-13.623 25.299-13.623 9.73 0 10.704 0.555 0.555 10.704-6.13 6.617-9.73 18.488-9.439 30.165 0.555 10.704-1.070 19.461-3.892 19.461s-4.476 11.677-3.892 26.272c0.555 30.165 8.855 35.030 32.111 18.488 30.165-22.38 40.868-9.439 16.542 21.407-9.439 11.677-17.515 26.272-17.515 33.084 0 9.439 2.238 10.704 16.542 8.368 14.596-3.308 16.542-2.238 16.542 8.368 0 6.617 6.13 20.434 13.623 30.165 7.784 9.73 13.623 22.38 13.623 29.191-0.555 14.596-18.488 34.057-35.030 38.922-18.488 4.379-24.326 15.569-14.596 33.084 8.855 16.542 3.892 29.191-13.623 36.003-10.704 3.892-13.623 9.439-13.623 21.407 0 8.368-3.892 18.488-8.368 22.38s-8.368 12.65-8.368 19.461c0 6.617-9.73 22.38-22.38 35.030-17.515 18.488-25.299 23.353-39.895 22.38-36.003-0.555-53.518 6.13-59.356 23.353-3.892 11.677-9.439 16.542-18.488 16.542-24.326 0-37.949 7.201-46.706 22.38-8.368 16.542-28.218 21.407-37.949 10.704zM93.685 395.632c-1.070-7.201-3.892-12.65-7.201-12.65-2.822 0-6.13 5.546-7.201 12.65-1.070 8.368 1.070 12.65 7.201 12.65s8.368-3.892 7.201-12.65zM127.741 354.764c0-8.855-4.963-10.704-18.488-4.963-13.623 4.963-10.704 13.623 4.963 13.623 8.855 0 13.623-3.308 13.623-8.368zM526.692 228.267c8.855-8.855 2.822-21.407-9.439-21.407-10.704 0-16.542 9.439-12.65 21.407 2.822 8.368 13.623 8.855 21.407 0.555zM419.656 184.48c0-10.704-2.822-16.542-7.784-16.542-10.704 0-16.542 8.855-11.677 22.38 5.546 17.515 19.461 13.623 19.461-5.546zM366.138 122.205c2.238-12.65 1.654-21.407-1.070-21.407-6.13 0-12.65 33.084-8.368 40.868 3.892 6.617 4.963 3.892 9.439-19.461z" />
<glyph unicode="&#xe90a;" glyph-name="unit-icon" horiz-adv-x="717" d="M34.329 239.944v116.766l81.736-81.736 145.957 145.957 72.006-72.006-145.957-145.957 81.736-81.736h-233.532v116.766zM491.662 163.073l40.868 40.868-145.957 145.957 72.006 72.006 145.957-145.957 81.736 81.736v-233.532h-233.532l40.868 40.868zM190.017 552.292l-74.925 74.925-81.736-81.736v233.532h233.532l-81.736-81.736 149.85-149.85-72.006-72.006-74.925 74.925zM423.548 513.371l-36.003 36.003 149.85 149.85-81.736 81.736h233.532v-233.532l-81.736 81.736-149.85-149.85-36.003 36.003z" />
<glyph unicode="&#xe90b;" glyph-name="apart-condo" horiz-adv-x="717" d="M44.059 6.412v25.299h29.191v856.283h583.829v-856.283h29.191v-50.599h-642.212v25.299zM365.165 113.447v77.844h-99.251v-155.688h99.251v77.844zM472.201 113.447v77.844h-99.251v-155.688h99.251v77.844zM228.939 308.057v49.625h-99.251v-99.251h99.251v49.625zM345.704 308.057v49.625h-97.305v-99.251h97.305v49.625zM436.198 541.589v282.184h-40.868v-564.368h40.868v282.184zM582.155 308.057v49.625h-97.305v-99.251h97.305v49.625zM231.858 415.093v48.652h-99.251v-97.305h99.251v48.652zM348.624 415.093v48.652h-97.305v-97.305h97.305v48.652zM582.155 415.093v48.652h-97.305v-97.305h97.305v48.652zM231.858 531.858v49.625h-99.251v-99.251h99.251v49.625zM348.624 531.858v49.625h-97.305v-99.251h97.305v49.625zM582.155 531.858v49.625h-97.305v-99.251h97.305v49.625zM231.858 648.624v48.652h-99.251v-97.305h99.251v48.652zM348.624 648.624v48.652h-97.305v-97.305h97.305v48.652zM582.155 648.624v48.652h-97.305v-97.305h97.305v48.652zM231.858 765.39v49.625h-99.251v-99.251h99.251v49.625zM348.624 765.39v49.625h-97.305v-99.251h97.305v49.625zM582.155 765.39v49.625h-97.305v-99.251h97.305v49.625z" />
<glyph unicode="&#xe90c;" glyph-name="building" horiz-adv-x="805" d="M768 950.857q14.857 0 25.714-10.857t10.857-25.714v-950.857q0-14.857-10.857-25.714t-25.714-10.857h-731.429q-14.857 0-25.714 10.857t-10.857 25.714v950.857q0 14.857 10.857 25.714t25.714 10.857h731.429zM292.571 786.286v-36.571q0-8 5.143-13.143t13.143-5.143h36.571q8 0 13.143 5.143t5.143 13.143v36.571q0 8-5.143 13.143t-13.143 5.143h-36.571q-8 0-13.143-5.143t-5.143-13.143zM292.571 640v-36.571q0-8 5.143-13.143t13.143-5.143h36.571q8 0 13.143 5.143t5.143 13.143v36.571q0 8-5.143 13.143t-13.143 5.143h-36.571q-8 0-13.143-5.143t-5.143-13.143zM292.571 493.714v-36.571q0-8 5.143-13.143t13.143-5.143h36.571q8 0 13.143 5.143t5.143 13.143v36.571q0 8-5.143 13.143t-13.143 5.143h-36.571q-8 0-13.143-5.143t-5.143-13.143zM292.571 347.428v-36.571q0-8 5.143-13.143t13.143-5.143h36.571q8 0 13.143 5.143t5.143 13.143v36.571q0 8-5.143 13.143t-13.143 5.143h-36.571q-8 0-13.143-5.143t-5.143-13.143zM219.429 164.571v36.571q0 8-5.143 13.143t-13.143 5.143h-36.571q-8 0-13.143-5.143t-5.143-13.143v-36.571q0-8 5.143-13.143t13.143-5.143h36.571q8 0 13.143 5.143t5.143 13.143zM219.429 310.857v36.571q0 8-5.143 13.143t-13.143 5.143h-36.571q-8 0-13.143-5.143t-5.143-13.143v-36.571q0-8 5.143-13.143t13.143-5.143h36.571q8 0 13.143 5.143t5.143 13.143zM219.429 457.143v36.571q0 8-5.143 13.143t-13.143 5.143h-36.571q-8 0-13.143-5.143t-5.143-13.143v-36.571q0-8 5.143-13.143t13.143-5.143h36.571q8 0 13.143 5.143t5.143 13.143zM219.429 603.428v36.571q0 8-5.143 13.143t-13.143 5.143h-36.571q-8 0-13.143-5.143t-5.143-13.143v-36.571q0-8 5.143-13.143t13.143-5.143h36.571q8 0 13.143 5.143t5.143 13.143zM219.429 749.714v36.571q0 8-5.143 13.143t-13.143 5.143h-36.571q-8 0-13.143-5.143t-5.143-13.143v-36.571q0-8 5.143-13.143t13.143-5.143h36.571q8 0 13.143 5.143t5.143 13.143zM512 18.286v109.714q0 8-5.143 13.143t-13.143 5.143h-182.857q-8 0-13.143-5.143t-5.143-13.143v-109.714q0-8 5.143-13.143t13.143-5.143h182.857q8 0 13.143 5.143t5.143 13.143zM512 310.857v36.571q0 8-5.143 13.143t-13.143 5.143h-36.571q-8 0-13.143-5.143t-5.143-13.143v-36.571q0-8 5.143-13.143t13.143-5.143h36.571q8 0 13.143 5.143t5.143 13.143zM512 457.143v36.571q0 8-5.143 13.143t-13.143 5.143h-36.571q-8 0-13.143-5.143t-5.143-13.143v-36.571q0-8 5.143-13.143t13.143-5.143h36.571q8 0 13.143 5.143t5.143 13.143zM512 603.428v36.571q0 8-5.143 13.143t-13.143 5.143h-36.571q-8 0-13.143-5.143t-5.143-13.143v-36.571q0-8 5.143-13.143t13.143-5.143h36.571q8 0 13.143 5.143t5.143 13.143zM512 749.714v36.571q0 8-5.143 13.143t-13.143 5.143h-36.571q-8 0-13.143-5.143t-5.143-13.143v-36.571q0-8 5.143-13.143t13.143-5.143h36.571q8 0 13.143 5.143t5.143 13.143zM658.286 164.571v36.571q0 8-5.143 13.143t-13.143 5.143h-36.571q-8 0-13.143-5.143t-5.143-13.143v-36.571q0-8 5.143-13.143t13.143-5.143h36.571q8 0 13.143 5.143t5.143 13.143zM658.286 310.857v36.571q0 8-5.143 13.143t-13.143 5.143h-36.571q-8 0-13.143-5.143t-5.143-13.143v-36.571q0-8 5.143-13.143t13.143-5.143h36.571q8 0 13.143 5.143t5.143 13.143zM658.286 457.143v36.571q0 8-5.143 13.143t-13.143 5.143h-36.571q-8 0-13.143-5.143t-5.143-13.143v-36.571q0-8 5.143-13.143t13.143-5.143h36.571q8 0 13.143 5.143t5.143 13.143zM658.286 603.428v36.571q0 8-5.143 13.143t-13.143 5.143h-36.571q-8 0-13.143-5.143t-5.143-13.143v-36.571q0-8 5.143-13.143t13.143-5.143h36.571q8 0 13.143 5.143t5.143 13.143zM658.286 749.714v36.571q0 8-5.143 13.143t-13.143 5.143h-36.571q-8 0-13.143-5.143t-5.143-13.143v-36.571q0-8 5.143-13.143t13.143-5.143h36.571q8 0 13.143 5.143t5.143 13.143z" />
<glyph unicode="&#xe90d;" glyph-name="pinterest" d="M516.567 879.114c-207.903 0-376.463-168.858-376.463-377.149 0-154.429 92.713-287.089 225.341-345.426-1.065 26.337-0.195 57.938 6.554 86.61 7.24 30.607 48.445 205.476 48.445 205.476s-12.032 24.084-12.032 59.679c0 55.89 32.338 97.628 72.612 97.628 34.243 0 50.78-25.764 50.78-56.627 0-34.499-21.955-86.067-33.26-133.837-9.431-40.008 20.029-72.643 59.423-72.643 71.342 0 119.368 91.761 119.368 200.509 0 82.668-55.583 144.538-156.641 144.538-114.196 0-185.344-85.309-185.344-180.603 0-32.87 9.667-56.033 24.832-73.984 6.963-8.253 7.926-11.54 5.396-21.012-1.802-6.953-5.949-23.665-7.67-30.28-2.499-9.544-10.24-12.954-18.842-9.421-52.593 21.494-77.107 79.196-77.107 144.067 0 107.131 90.194 235.612 269.056 235.612 143.718 0 238.305-104.212 238.305-216.054 0-147.958-82.104-258.478-203.121-258.478-40.653 0-78.879 22.016-91.976 47.022 0 0-21.852-86.886-26.481-103.67-7.977-29.082-23.593-58.153-37.878-80.804 33.853-10.015 69.622-15.462 106.68-15.462 207.903 0 376.443 168.837 376.443 377.149 0.020 208.292-168.52 377.16-376.422 377.16z" />
<glyph unicode="&#xe90e;" glyph-name="sea-view" d="M752.886 637.788c-44.503 18.227-95.631-2.488-114.166-46.275s2.519-94.075 47.073-112.282c44.503-18.237 95.621 2.478 114.166 46.264 18.534 43.786-2.54 94.065-47.073 112.292zM792.228 705.26l-18.371 7.516-23.992-56.73 18.35-7.516zM688.814 460.954l-18.35 7.526-24.013-56.74 18.35-7.496zM818.524 528.476l-7.66-18.043 57.682-23.613 7.629 18.033zM570.132 630.19l-7.639-18.053 57.672-23.613 7.629 18.053zM811.039 606.249l7.588-18.084 57.743 23.429-7.557 18.063zM569.866 487.342l57.764 23.419-7.578 18.074-57.754-23.419zM791.685 411.484l-23.818 56.812-18.371-7.444 23.808-56.812zM689.162 656.159l-23.788 56.801-18.381-7.444 23.808-56.801zM799.375 623.462l76.902 75.704-14.049 13.814-76.913-75.704zM785.367 479.775l76.984-75.653 14.049 13.824-76.984 75.653zM576.43 403.999l76.933 75.725-14.060 13.814-76.923-75.704zM653.312 637.225l-76.995 75.653-14.039-13.824 76.964-75.663zM931.441 568.361l-108.82-0.041 0.020-19.558 108.81 0.041zM729.354 349.88l-0.020 107.028-19.896-0.010 0.031-107.028zM507.228 568.218h108.81v-19.558h-108.81v19.558zM709.325 767.119l0.020-107.028h19.896l-0.041 107.039zM922.45 173.865c-29.757 0-59.279 13.824-83.149 38.902-10.158 10.691-18.442 22.548-24.463 34.683-5.437-11.971-12.913-23.654-22.067-34.089-22.036-25.17-49.981-39.045-78.694-39.045-44.001 0-84.49 33.874-103.619 71.946-15.729-37.407-50.063-71.946-97.444-71.946-48.148 0-83.948 34.529-100.751 71.485-16.732-36.956-52.388-71.485-100.321-71.485-29.338 0-57.498 13.844-79.299 39.004-8.53 9.81-15.565 20.756-20.828 32.102-17.551-38.431-55.552-71.096-100.936-71.096-68.475-0.020-110.879 60.303-110.879 116.173h21.187c0-42.26 36.055-87.532 89.692-87.532 54.221 0 90.194 52.675 90.194 87.532h21.197c0-30.853 34.048-87.532 89.672-87.532 52.029 0 89.692 52.285 89.692 87.532h21.197c0-30.853 34.232-87.532 90.173-87.532 56.371 0 85.873 56.996 85.873 87.532h21.197c0-29.952 39.68-87.532 93.993-87.532 54.774 0 89.702 57.477 89.702 87.532h21.176c0-30.095 41.175-87.982 97.495-87.982 51.579 0 82.381 32.901 82.381 87.982h21.197c0.010-71.926-39.67-116.634-103.567-116.634zM922.45-2.796c-29.757 0-59.279 13.824-83.149 38.902-10.158 10.68-18.442 22.548-24.463 34.683-5.437-11.981-12.913-23.654-22.067-34.099-22.036-25.17-49.981-39.045-78.694-39.045-44.001 0-84.49 33.843-103.619 71.936-15.729-37.407-50.063-71.936-97.444-71.936-48.148 0-83.948 34.509-100.751 71.465-16.732-36.956-52.388-71.465-100.321-71.465-29.338 0-57.498 13.834-79.299 38.963-8.53 9.851-15.565 20.797-20.828 32.143-17.551-38.431-55.552-71.096-100.936-71.096-68.475-0.010-110.879 60.283-110.879 116.173h21.187c0-42.281 36.055-87.542 89.692-87.542 54.221 0 90.194 52.685 90.194 87.542h21.197c0-30.863 34.048-87.542 89.672-87.542 52.029 0 89.692 52.285 89.692 87.542h21.197c0-30.863 34.232-87.542 90.173-87.542 56.371 0 85.873 56.975 85.873 87.542h21.197c0-29.983 39.68-87.542 93.993-87.542 54.774 0 89.702 57.477 89.702 87.542h21.176c0-30.116 41.175-88.003 97.495-88.003 51.579 0 82.381 32.901 82.381 88.003h21.197c0.010-71.926-39.67-116.623-103.567-116.623z" />
<glyph unicode="&#xe90f;" glyph-name="swimming-pool" d="M1027.502 93c-17.828-7.209-35.635-14.387-57.006-14.387-42.752 0-71.25 28.785-114.002 28.785-42.762 0-71.25-28.785-114.002-28.785s-71.26 28.785-114.012 28.785-71.24-28.785-114.002-28.785c-42.752 0-71.25 28.785-114.002 28.785s-71.26-28.785-114.012-28.785c-42.752 0-71.25 28.785-114.002 28.785s-71.24-28.785-114.002-28.785c-21.381 0-39.188 7.158-57.006 14.367v-86.374c17.797-7.188 35.615-14.356 56.996-14.356 42.762 0 71.25 28.795 114.002 28.795s71.26-28.795 114.002-28.795c42.752 0 71.25 28.795 114.022 28.795 42.752 0 71.26-28.795 114.002-28.795 42.752 0 71.24 28.795 114.012 28.795 42.752 0 71.24-28.795 114.012-28.795 42.752 0 71.229 28.795 113.992 28.795 42.742 0 71.24-28.795 114.012-28.795 21.361 0 39.168 7.188 56.996 14.387v86.364zM1027.502 265.697c-17.828-7.188-35.635-14.387-57.006-14.387-42.752 0-71.25 28.764-114.002 28.764-42.762 0-71.25-28.764-114.002-28.764s-71.26 28.764-114.012 28.764-71.24-28.764-114.002-28.764c-42.752 0-71.25 28.764-114.002 28.764s-71.26-28.764-114.012-28.764c-42.752 0-71.25 28.764-114.002 28.764s-71.24-28.764-114.002-28.764c-21.381 0-39.188 7.148-57.006 14.346v-86.354c17.807-7.168 35.625-14.346 57.006-14.346 42.762 0 71.25 28.764 114.002 28.764s71.26-28.764 114.002-28.764c42.742 0 71.25 28.764 114.012 28.764s71.25-28.764 114.002-28.764c42.762 0 71.25 28.764 114.002 28.764s71.26-28.764 114.012-28.764 71.24 28.764 114.002 28.764c42.752 0 71.25-28.764 114.002-28.764 21.371 0 39.178 7.178 57.006 14.387v86.354zM172.452 337.664v28.805h285.010v-43.213c17.818-7.188 35.625-14.387 57.016-14.387 10.199 0 19.517 1.71 28.488 4.188v298.076c0 111.104 89.508 201.472 199.516 201.472 110.029 0 199.496-90.378 199.496-201.472 0-23.869 19.118-43.192 42.742-43.192 23.634 0 42.772 19.323 42.772 43.192 0 158.71-127.867 287.826-285.010 287.826-152.361 0-276.808-121.436-284.303-273.439h-285.010c7.363 104.376 93.594 187.085 198.789 187.085 34.017 0 65.997-8.796 94.044-24.074 15.626 24.74 34.355 47.309 55.736 67.021-43.592 27.361-94.802 43.397-149.78 43.397-157.153 0.010-285.020-129.106-285.020-287.816v-298.056c28.631 7.967 52.961 24.586 85.514 24.586zM172.452 539.167h285.010v-86.354h-285.010v86.354z" />
<glyph unicode="&#xe924;" glyph-name="guide3" horiz-adv-x="717" d="M16.814 424.823v340.567h681.134v-681.134h-681.134v340.567zM483.877 220.483c6.228 3.406 7.201 6.714 7.201 25.299v16.542h124.55v-33.084l5.060-5.060c4.476-4.476 5.546-5.060 10.704-5.060 4.573 0 5.936 0.613 9.73 4.379l4.671 4.379-0.005 26.272c-0.004 24.326-0.185 26.272-2.335 30.165-1.265 2.043-3.6 4.281-5.254 4.865-1.751 0.681-31.138 1.070-74.925 1.070h-72.006l-0.011 76.871c-0.013 96.332-0.642 107.035-9.73 126.496-2.141 5.449-3.99 10.704-3.99 11.677-0.004 1.946-6.519 14.596-10.704 19.461-1.849 2.53-3.308 5.157-3.308 5.838 0 0.71-2.043 4.087-4.573 7.395l-4.573 6.13v23.353c0 25.299-0.487 28.218-6.519 32.111-2.919 1.946-5.936 2.238-34.057 2.53l-30.165 0.311-6.909 3.406c-7.492 3.698-36.003 12.65-47.679 15.569-5.157 1.070-16.542 1.557-36.976 1.557-33.084-0.008-36.003-0.467-63.248-9.341-16.542-5.352-39.895-16.542-46.706-22.38-2.238-1.849-6.228-4.379-8.855-5.644s-5.546-3.211-6.325-4.281c-0.808-1.070-3.698-3.795-6.422-5.936-7.784-6.13-31.138-31.138-31.138-33.084 0-0.632-1.751-3.406-3.892-6.228-5.352-6.909-19.461-34.057-20.434-41.841-0.837-3.308-2.725-10.704-4.281-15.569-6.13-21.407-5.838-15.569-6.228-136.227l-0.36-116.766 5.157-4.865c2.822-2.725 6.325-5.157 7.784-5.449 1.46-0.282 85.628-0.448 184.879-0.379 175.149 0.126 184.879 0.253 184.879 2.141zM269.807 317.788c-8.076 1.070-13.623 3.016-22.38 7.492-4.087 2.141-9.73 4.963-12.65 6.325s-6.909 4.184-9.049 6.422c-2.043 2.238-5.254 4.768-7.103 5.741-1.849 0.944-3.308 2.238-3.308 2.919 0 0.652-2.53 3.892-5.644 7.103-3.114 3.308-6.422 7.784-7.492 9.73-1.070 2.238-3.6 7.395-5.741 11.677-7.006 13.623-7.979 17.515-7.979 38.922 0.017 22.38-0.093 22.38 12.65 46.706 3.406 6.617 15.569 21.407 22.38 27.245 2.919 2.335 5.546 4.281 5.936 4.281 0.35 0 3.6 2.043 7.298 4.476 7.103 4.865 26.272 11.677 39.895 13.623 9.73 1.849 27.245 0.817 37.949-2.238 17.515-4.963 22.38-6.519 25.299-8.66 16.542-10.704 23.353-15.569 23.353-17.515 0-0.496 1.265-1.654 2.919-2.433 2.822-1.557 16.542-20.434 18.488-26.272 9.633-24.326 10.704-44.76 3.211-69.086-2.238-7.201-5.060-14.596-6.325-16.542-1.265-1.654-3.698-5.254-5.449-8.174-1.751-2.822-5.254-7.395-7.784-9.73-6.13-6.617-20.434-18.488-23.353-19.461-1.46-0.457-4.963-2.335-7.882-4.184s-5.741-3.308-6.422-3.308c-0.662-0.004-2.725-0.827-4.671-1.849-7.979-4.281-37.949-6.422-56.437-3.892zM314.567 347.952c4.865 1.849 9.633 4.087 10.704 5.060 1.070 0.895 3.795 2.238 6.13 3.016 2.53 0.798 5.546 3.016 7.298 5.254 1.654 2.141 4.768 4.963 6.909 6.325s3.892 3.016 3.892 3.892c0 0.798 1.654 3.698 3.6 6.422s4.865 7.882 6.519 11.677c5.449 11.677 4.671 45.733-1.265 52.545-0.817 0.973-2.919 4.379-4.768 7.492-7.59 13.623-24.326 26.272-38.922 30.165-22.38 6.13-50.599 2.627-64.221-8.076-2.335-1.849-5.449-3.698-6.811-4.087-1.362-0.399-3.795-2.627-5.449-5.060-1.654-2.335-4.768-6.033-7.006-8.174s-3.99-4.379-3.99-4.963c0-0.603-1.557-4.379-3.503-8.466-9.244-19.461-8.855-36.003 1.265-57.41 6.228-12.65 17.515-24.326 31.138-31.138 14.596-7.201 17.515-8.076 35.030-8.174 14.596-0.107 15.569 0.107 24.326 3.308z" />
<glyph unicode="&#xe925;" glyph-name="location2" d="M512 960c-176.732 0-320-143.268-320-320 0-320 320-704 320-704s320 384 320 704c0 176.732-143.27 320-320 320zM512 444c-108.248 0-196 87.752-196 196s87.752 196 196 196 196-87.752 196-196-87.752-196-196-196zM388 640c0 68.483 55.517 124 124 124s124-55.517 124-124c0-68.483-55.517-124-124-124s-124 55.517-124 124z" />
<glyph unicode="&#xe926;" glyph-name="bedroom" d="M815.094 532.562v169.585h-36.649v-41.4h-503.675v41.4h-36.71v-169.585h577.034zM515.226 547.543h-110.858v65.659h110.868v-65.659zM538.86 613.202h109.957v-65.659h-109.957v65.659zM778.445 547.543h-106.056v65.659h106.056v-65.659zM274.77 613.202h106.004v-65.659h-106.004v65.659zM238.060 313.098h577.034v-15.022h-577.034v15.022zM864.42 496.671h-675.748c-37.335 0-67.553-35.236-67.604-78.838v-223.98h40.735v47.258h729.559v-47.258h40.745v223.99c-0.051 43.592-30.3 78.828-67.686 78.828zM161.802 268.595v149.248c0.031 17.336 12.114 31.324 26.88 31.324h675.748c14.879 0 26.87-13.988 26.941-31.324v-149.248h-729.569z" />
<glyph unicode="&#xe927;" glyph-name="bath2" d="M971.428 476.744v285.491c0 57.375-40.96 142.725-153.958 142.725-94.966 0-138.629-60.385-150.19-113.736-45.988-13.701-79.442-53.187-79.442-100.372h228.454c0 44.339-29.379 82.176-71.045 97.976 7.219 20.644 25.508 44.759 72.223 44.759 70.308 0 76.708-54.845 76.984-71.352v-285.491h-846.592c-21.248 0-38.461-15.954-38.461-35.686v-35.676c0-19.763 17.224-35.707 38.461-35.707v-107.039c0-77.363 70.4-153.344 151.767-173.261-3.799-17.408-13.619-40.847-36.332-40.847-21.228 0-38.461-15.954-38.461-35.697 0-19.712 17.234-35.656 38.461-35.656 66.458 0 105.626 51.937 113.746 107.039h465.213c8.059-55.101 47.278-107.039 113.695-107.039 21.32 0 38.492 15.954 38.492 35.656 0 19.753-17.172 35.697-38.492 35.697-22.682 0-32.512 23.439-36.362 40.847 81.459 19.917 151.849 95.898 151.849 173.261v107.039c21.258 0 38.492 15.954 38.492 35.707v35.676c-0.010 19.732-17.244 35.686-38.502 35.686zM894.454 262.625c0-51.016-60.416-107.028-115.425-107.028h-538.757c-53.975 0-115.436 56.965-115.436 107.028v107.049h769.618v-107.049zM604.058 650.834l2.365 8.663c2.519 9.626 12.841 15.421 23.347 12.974 10.363-2.396 16.568-12.032 13.957-21.637l-2.345-8.602c-2.161-8.141-10.025-13.548-18.616-13.548-1.577 0-3.072 0.195-4.69 0.573-10.291 2.355-16.497 12.022-14.019 21.576zM585.318 581.11l3.779 13.947c2.509 9.554 12.759 15.473 23.306 13.025 10.373-2.396 16.609-12.093 14.029-21.637l-3.809-13.957c-2.191-8.12-10.025-13.517-18.678-13.517-1.505 0-3.052 0.164-4.618 0.512-10.312 2.427-16.63 12.124-14.008 21.627zM567.972 516.731l2.345 8.653c2.56 9.544 12.82 15.432 23.306 12.995 10.332-2.417 16.599-12.063 13.988-21.647l-2.365-8.643c-2.099-8.11-9.974-13.517-18.606-13.517-1.546 0-3.103 0.174-4.68 0.553-10.383 2.376-16.589 12.104-13.988 21.606zM800.020 650.834c2.529-9.554-3.686-19.22-13.988-21.586-1.526-0.379-3.154-0.573-4.68-0.573-8.622 0-16.497 5.407-18.606 13.548l-2.345 8.602c-2.591 9.605 3.645 19.241 13.978 21.637 10.056 2.478 20.736-3.348 23.296-12.974l2.345-8.653zM818.821 581.11c2.529-9.554-3.727-19.2-14.019-21.627-1.546-0.348-3.113-0.512-4.659-0.512-8.622 0-16.486 5.386-18.657 13.517l-3.779 13.957c-2.488 9.544 3.738 19.241 14.039 21.637 10.056 2.468 20.726-3.471 23.276-13.025l3.799-13.947zM810.547 538.378c10.127 2.488 20.695-3.451 23.265-12.995l2.345-8.653c2.529-9.564-3.727-19.231-13.998-21.606-1.516-0.379-3.144-0.553-4.69-0.553-8.622 0-16.517 5.396-18.596 13.517l-2.355 8.643c-2.529 9.585 3.686 19.231 14.029 21.647zM682.793 646.246v8.919c0 9.841 8.684 17.828 19.272 17.828 10.609 0 19.231-7.987 19.231-17.828v-8.919c0-9.861-8.622-17.859-19.231-17.859-10.598 0.010-19.272 7.997-19.272 17.859zM682.793 590.705c0 9.861 8.684 17.848 19.272 17.848 10.609 0 19.231-7.987 19.231-17.848v-13.865c0-9.882-8.622-17.838-19.231-17.838-10.588 0-19.272 7.956-19.272 17.838v13.865zM682.793 521.349c0 9.841 8.684 17.828 19.272 17.828 10.609 0 19.231-7.987 19.231-17.828v-8.95c0-9.83-8.622-17.828-19.231-17.828-10.588 0-19.272 7.997-19.272 17.828v8.95z" />
<glyph unicode="&#xe928;" glyph-name="guide4" horiz-adv-x="717" d="M16.814 424.823v340.567h681.134v-681.134h-681.134v340.567zM328.19 191.291c0 0.623-0.487 1.168-1.070 1.168-0.594 0-2.919 1.849-5.060 4.087l-3.99 4.087v21.407l-25.299 0.007c-14.596 0.003-27.245 0.525-30.165 1.168-4.865 1.362-9.73 8.855-9.73 14.596 0 4.184 4.865 12.65 8.271 14.596 1.654 0.944 10.704 1.557 29.191 1.946l27.245 0.564v62.275l-13.623 0.652c-13.623 0.632-14.596 0.817-23.353 5.254-11.677 5.644-20.434 13.623-23.353 22.38-3.698 10.704-4.184 16.542-3.795 40.868 0.438 23.353 0.574 24.326 3.6 32.111 2.725 6.811 4.281 9.049 10.704 14.596 10.704 9.536 20.434 12.65 38.922 13.623 5.546 0.165 10.704 0.331 10.704 0.37 0.467 0.043 0.847 4.671 0.847 10.704 0 11.677 2.043 16.542 7.979 19.461 5.838 3.016 15.569 1.946 19.461-2.141 4.281-4.281 5.644-8.271 6.13-18.488l0.574-9.73h25.299c29.191 0 32.111-0.623 36.003-8.368 2.919-5.644 2.919-9.244 0.175-14.596-4.184-8.076-6.325-8.66-36.003-9.049-18.488-0.263-26.272-0.73-26.272-1.654-0.204-0.74-0.214-15.569-0.026-32.111l0.35-30.165 14.596-0.671c13.623-0.652 14.596-0.856 22.38-4.963 11.677-6.033 19.461-13.623 23.353-24.326 3.211-8.174 3.308-8.952 3.698-33.084s0.36-25.299-2.725-34.057c-3.795-11.677-7.979-17.515-17.515-24.326-9.73-6.714-13.623-7.687-30.165-8.66l-13.623-0.71 0.36-6.909c0.506-9.73-1.265-15.569-6.617-20.434-2.433-2.238-4.476-4.281-4.476-4.671 0-1.070 84.655-0.545 97.305 0.671 29.191 2.335 55.464 9.341 65.194 17.515 2.141 1.654 4.768 3.406 5.936 3.698 1.168 0.36 5.157 4.281 8.952 8.757 6.033 7.103 7.395 9.633 10.704 20.434 4.087 12.65 4.184 12.65 4.087 31.138-0.052 16.542-0.457 20.434-4.087 38.922-2.335 11.677-5.741 24.326-8.174 30.165-2.238 5.838-4.671 12.65-5.254 15.569-0.623 2.53-3.308 9.049-6.033 14.596s-6.228 12.65-7.687 16.542c-1.557 3.6-4.379 8.757-6.228 11.677-1.946 2.725-3.503 5.741-3.503 6.519-0.002 0.817-2.238 4.768-5.060 8.855-2.725 3.99-5.936 9.147-7.006 11.677-1.070 2.141-4.184 6.519-6.811 9.536-2.627 3.114-4.768 6.033-4.768 6.617 0 0.555-1.654 2.919-3.698 5.157s-5.741 6.617-8.174 9.73c-9.73 11.677-32.111 33.084-38.922 36.003-1.751 0.915-25.299 1.265-81.736 1.362l-78.817 0.086-4.087-3.016c-5.254-3.892-9.633-7.979-21.407-20.434-13.623-13.623-15.569-15.569-19.461-21.407-1.849-2.53-5.838-7.784-8.757-11.677-2.919-3.795-5.352-7.298-5.352-7.784-0.007-0.516-2.335-3.99-5.060-7.687-2.822-3.698-5.352-7.784-5.838-9.049-0.389-1.265-1.557-3.503-2.627-5.060s-3.406-5.157-5.352-7.979c-1.849-2.822-3.795-6.617-4.184-8.368-0.438-1.751-3.016-7.201-5.838-11.677-2.725-4.865-5.060-9.341-5.060-9.73 0-0.642-2.725-8.174-6.13-16.542-5.644-14.596-8.66-24.326-14.596-49.625-2.822-12.65-3.406-46.706-0.895-55.464 3.016-10.704 9.73-23.353 16.542-30.165 7.492-7.492 19.461-14.596 27.245-17.515 16.542-5.157 29.191-7.687 45.733-9.341 17.515-1.751 95.359-2.141 95.359-0.535zM379.761 260.378l3.6 3.6 0.35 21.407c0.399 25.299-0.37 28.218-6.714 32.111-2.822 1.46-6.422 2.043-14.596 2.043-10.704 0.044-10.704-0.030-10.704-2.53 0.045-1.362 0.175-15.569 0.282-32.111l0.204-29.191 11.677 0.535c11.677 0.516 11.677 0.632 15.569 4.087zM584.101 298.327c4.379 2.335 9.633 5.060 11.677 6.13s4.865 3.503 6.325 5.449l5.644 7.103c4.768 5.838 6.325 9.73 8.271 20.434 2.335 13.623 2.238 21.407-0.36 41.841-1.46 11.677-3.211 19.461-6.228 27.245-2.335 6.519-4.963 14.596-5.838 17.515-0.905 3.211-3.892 9.73-6.617 15.569-2.725 5.254-5.254 10.704-5.741 12.65-0.418 1.849-1.265 3.698-1.849 4.087-0.584 0.36-2.433 3.211-4.184 6.422-7.882 14.596-9.73 17.515-21.407 34.057-2.822 3.795-6.228 8.368-7.687 10.704-6.13 8.368-24.326 26.272-32.111 31.138l-4.476 2.822h-30.165c-23.353 0-30.165-0.321-30.165-1.362 0.007-0.778 0.769-3.892 1.654-6.909 2.141-7.103 2.141-12.65-0.136-19.461l-1.849-5.352 11.677-10.704c6.13-6.033 14.596-14.596 17.515-18.488 3.698-4.379 7.298-8.271 8.076-8.855 0.778-0.496 2.335-2.822 3.6-5.060 1.168-2.335 3.503-5.449 5.157-7.006s3.99-4.768 5.254-7.103c1.168-2.335 3.99-6.617 6.228-9.536 2.141-2.822 5.449-8.174 7.298-11.677 1.849-3.6 3.795-6.811 4.379-7.201 1.265-0.769 19.461-36.976 19.461-38.922 0-0.623 1.946-5.352 4.379-10.704 2.433-5.254 4.768-11.677 5.157-13.623 0.428-2.141 2.238-7.979 3.99-12.65 4.865-13.623 6.422-20.434 8.466-34.057 2.53-17.515 2.725-18.488 5.157-18.488 1.168 0 5.741 1.946 9.73 4.281zM117.038 314.869c1.362 5.741 2.725 12.65 3.114 16.542 0.409 3.114 2.919 11.677 5.546 18.488 2.627 7.103 5.157 14.596 5.546 16.542 0.409 1.849 3.308 8.952 6.422 15.569l7.882 17.515c1.265 2.822 3.698 7.395 5.352 9.73 1.751 2.822 3.503 6.13 3.892 7.492 0.399 1.362 3.503 6.617 6.909 11.677 3.406 5.157 6.13 9.73 6.13 10.704 0 0.632 2.043 3.698 4.573 6.714s5.060 6.519 5.741 7.687c1.46 2.725 17.515 23.353 21.407 27.245 11.677 12.65 22.38 23.353 24.326 24.326 1.946 1.070 2.141 2.627 2.238 18.488l0.107 17.515h-18.488c-20.434 0-22.38-0.545-30.165-8.174-14.596-13.623-20.434-20.434-22.38-23.353-0.973-1.849-2.725-3.892-3.892-4.573-2.043-1.070-15.569-20.434-19.461-27.245-0.954-1.751-3.6-6.033-5.838-9.341-2.238-3.406-5.449-9.439-7.103-13.623-1.654-3.99-3.99-8.563-4.963-9.73-2.238-3.308-6.811-13.623-6.811-15.569 0-0.72-2.238-7.006-4.963-13.623-2.725-6.909-5.546-16.542-6.325-21.407-0.759-4.671-1.849-10.704-2.335-13.623-3.6-18.488-3.698-30.165-0.438-43.787 3.406-14.596 4.963-17.515 12.65-25.299 3.99-4.184 7.687-7.59 8.368-7.59 0.623 0 2.238 4.671 3.503 10.704zM321.378 385.901l0.302 32.111-11.677-0.389c-10.704-0.36-11.677-0.632-15.569-3.6-5.644-4.379-6.519-8.076-6.519-29.191 0.020-19.461 1.265-24.326 7.395-29.191 2.822-2.238 4.281-2.433 14.596-2.141l11.677 0.321 0.302 32.111zM417.71 512.397c7.979 3.308 10.704 12.65 6.714 20.434-4.087 6.811-2.043 6.714-82.709 6.714-66.167 0-73.952-0.185-76.871-1.849-3.406-2.043-6.811-8.563-6.811-12.65 0-3.6 4.281-9.73 7.979-11.677 4.281-2.141 145.957-2.043 155.688 0.117zM425.202 556.185c1.362 2.238 4.476 5.254 6.909 6.811s4.379 3.308 4.379 3.892c0 0.623 2.627 4.087 5.936 7.687 3.211 3.6 6.811 8.076 7.784 9.73 1.070 1.849 3.795 6.325 6.033 9.73 3.698 5.936 4.281 7.882 4.768 15.569 0.671 10.704-0.662 14.596-7.59 19.461-5.741 4.573-14.596 6.033-27.245 4.476-9.049-1.070-12.65-2.238-24.326-7.395-3.308-1.46-9.147-3.795-12.65-5.060-3.892-1.265-7.687-2.919-8.466-3.6-3.406-2.822-20.434-9.73-29.191-12.65-7.59-1.946-13.623-1.168-26.272 3.406-6.811 2.433-16.542 6.519-21.407 9.049s-9.536 4.573-10.704 4.573c-0.798 0-4.963 1.557-9.147 3.503-4.281 1.946-9.244 4.184-10.704 4.963-1.849 0.817-7.979 1.946-13.623 2.627-11.677 1.265-22.38 0.068-26.272-3.211-4.865-3.503-8.952-11.677-8.952-17.515 0-6.033 4.671-20.434 7.882-24.326 1.265-1.557 3.6-4.865 5.352-7.298 3.114-4.573 8.076-10.704 19.461-22.38l6.325-6.909 161.526-0.292 2.53 3.99zM517.642 556.227c3.308 2.141 5.352 8.952 3.99 13.623-1.362 5.449-5.449 6.617-23.353 6.714l-13.623 0.051-4.476-6.325c-7.298-9.73-10.704-15.569-9.73-16.542 0.243-0.399 10.704-0.496 22.38-0.204 16.542 0.379 23.353 0.934 25.299 2.043zM215.997 555.292c0 1.265-2.627 4.865-6.617 9.147-1.849 2.043-3.99 5.352-4.671 7.492-1.46 4.281-4.671 5.838-9.73 4.476-8.757-2.141-10.704-11.677-4.573-18.488 3.6-3.698 3.6-3.698 14.596-3.698 6.13 0 10.704 0.399 10.704 0.876zM194.59 591.295c-5.546 26.272-2.725 42.814 9.244 55.464 1.946 2.043 3.308 4.184 3.016 4.768-1.654 2.725-14.596 5.936-24.326 6.422-10.704 0.496-11.677 0.418-16.542-2.822-15.569-9.73-10.704-28.218 15.569-55.464 11.677-11.677 14.596-13.623 13.623-8.563zM525.427 595.285c10.704 10.704 18.488 19.461 20.434 23.353 0.963 2.043 2.919 5.936 4.476 8.757 5.644 10.704 4.865 17.515-2.822 25.299l-4.573 4.476-27.245-0.058-12.65-5.449c-6.811-3.016-13.623-5.838-14.596-6.422-3.308-1.265-3.211-1.849 0.905-8.271 6.811-10.704 8.66-29.191 3.99-40.868-3.6-8.66-3.406-8.757 11.677-8.757h13.623l6.909 7.006z" />
<glyph unicode="&#xe929;" glyph-name="guide5" horiz-adv-x="717" d="M18.76 434.554v340.567h681.134v-681.134h-681.134v340.567zM524.745 201.022c0.379 1.849 1.168 3.698 1.654 4.087 0.545 0.341 0.973 1.46 0.973 2.53 0.004 1.070 0.691 3.211 1.557 4.865 0.837 1.557 1.849 5.644 2.238 9.049 0.399 3.406 1.265 6.617 1.849 7.298 0.642 0.642 1.168 1.849 1.168 2.725s0.681 3.211 1.557 5.157c2.725 6.519 4.379 11.677 5.936 17.515 2.919 11.677 6.325 22.38 8.368 26.272 0.574 0.973 1.362 3.698 1.849 6.033 0.428 2.238 1.265 4.379 1.751 4.768 0.555 0.341 0.973 2.433 0.973 4.573 0 5.546 2.043 5.352 21.407-2.141 4.087-1.557 12.65-2.043 12.65-0.778 0 1.46-3.99 7.395-7.103 10.704-1.070 1.070-2.335 3.406-2.725 5.060-0.428 1.654-1.849 4.184-3.211 5.449-2.627 2.53-5.644 6.909-8.952 13.623-1.168 2.238-4.379 7.006-7.103 10.704s-4.963 7.298-4.963 8.076-1.265 2.919-2.919 4.768c-2.433 2.822-5.838 7.979-13.623 20.434-0.749 1.265-1.946 2.822-2.725 3.406-0.769 0.642-2.53 3.211-3.99 5.838-1.46 2.53-4.476 7.395-6.714 10.704l-4.184 6.13 1.070 9.633c1.168 10.704 0.379 53.518-1.362 76.871-2.335 31.138-3.503 41.841-4.379 42.814-1.265 1.751-7.784 19.461-8.66 24.326-0.399 1.946-1.46 4.184-2.335 4.963-0.895 0.749-1.654 1.849-1.654 2.433 0 0.613-1.557 3.406-3.406 6.13-1.849 2.822-3.406 5.644-3.406 6.422 0 0.769-4.379 5.936-9.633 11.677-5.352 5.546-9.73 10.704-9.73 11.677-0.021 0.701-1.070 3.308-2.238 5.838s-2.238 5.254-2.238 6.13c-0.021 0.847-1.46 3.698-3.308 6.228-1.751 2.627-4.963 7.298-7.103 10.704-4.768 7.103-26.272 28.218-28.218 28.218-0.973 0-3.795 1.362-6.325 3.114-7.201 4.865-11.677 7.298-17.515 8.368-7.006 1.46-14.596 3.503-16.542 4.573-3.308 1.654-26.272 2.433-34.057 1.168-7.395-1.070-13.623-2.627-26.272-5.936-2.822-0.749-5.936-2.043-6.811-2.725-0.934-0.778-3.795-2.53-6.228-3.892-11.677-6.228-14.596-8.368-18.488-11.677-1.946-2.043-5.449-5.060-7.784-6.811s-4.184-3.795-4.184-4.573c-0.001-0.759-2.043-3.211-4.476-5.546s-5.741-6.617-7.201-9.633c-1.557-3.016-3.892-7.298-5.254-9.439-5.352-8.757-5.936-10.704-10.704-34.057-1.46-7.687-0.642-37.949 1.168-39.895 0.691-0.837 1.557-4.573 1.946-8.271l0.662-6.714-17.32-17.515 7.006-7.006c4.281-4.281 6.714-7.59 6.325-8.563-0.496-1.265-3.698-1.654-15.569-1.654h-14.596l0.691-6.519c0.379-3.6 0.973-9.244 1.362-12.65 1.070-9.341-0.282-9.73-18.488-10.704l-15.569-0.827 0.769-8.076c0.428-4.476 1.265-8.952 1.751-9.73 1.751-3.406 1.070-7.979-1.46-9.73l-2.433-2.141-25.299 1.479 1.498-25.299-6.033-6.033h-14.596c-7.784 0-14.596-0.379-14.596-0.856-2.725-28.218-3.016-30.165-8.271-35.030-5.546-5.741-7.59-5.741-18.488-0.204-3.698 1.849-7.006 3.406-7.395 3.406-0.399 0.008-1.070-4.768-1.46-10.704-0.399-5.741-0.973-12.65-1.362-16.542l-0.603-5.644 3.795-3.99c2.141-2.238 4.963-4.671 6.325-5.449l2.53-1.46 19.461 19.461c10.704 10.704 19.461 19.461 20.434 19.461 1.070 0 4.865 4.184 4.865 5.352 0 1.265 4.865 6.033 6.033 6.033s7.59 6.714 7.59 7.979c0 0.389 2.335 2.335 5.157 4.281s5.157 4.281 5.157 5.060c0.023 1.751 4.963 6.519 6.617 6.519 0.681 0 2.141 1.362 3.211 3.114s3.503 4.379 5.352 5.936 4.476 4.087 5.741 5.546 3.795 4.087 5.546 5.644c3.99 3.795 7.395 7.103 10.704 10.704 1.654 1.751 4.184 4.281 5.644 5.644s4.379 4.184 6.422 6.228c2.043 2.141 4.865 4.963 6.228 6.325s3.892 3.99 5.546 5.644c1.654 1.751 4.184 4.281 5.644 5.644s4.379 4.184 6.325 6.228c1.946 2.141 4.184 4.379 4.963 5.060 0.73 0.72 3.6 3.698 6.325 6.519 2.725 2.919 5.936 5.254 7.006 5.254 2.141 0 8.952-7.784 8.466-9.73-0.272-1.168-126.496-126.496-126.496-126.496-0.973 0-7.687-7.395-8.466-9.341-0.418-1.070-1.362-1.946-2.043-1.946-2.141 0-21.407-20.434-21.407-22.38 0-2.335 6.422-10.704 8.368-10.704 0.74-0.038 2.919-2.141 4.768-4.768 1.849-2.53 4.184-5.157 5.157-5.741 1.362-0.866 17.515 14.596 80.763 77.844 43.787 43.787 80.763 78.817 81.736 78.817 1.070 0 3.503-1.654 5.546-3.6l3.698-3.6 2.043 1.849c1.168 1.070 2.627 1.849 3.406 1.849 0.73 0 1.362 0.72 1.362 1.654 0 0.885 2.335 3.698 5.254 6.228 4.476 3.99 6.033 4.671 10.704 4.671 2.725 0 6.033-0.506 7.103-1.168 1.168-0.623 8.174-1.751 15.569-2.433 13.623-1.362 26.272-0.302 44.76 3.503 5.352 1.168 15.569 5.936 21.407 9.73 3.308 2.238 5.741 1.946 7.103-0.973 3.308-7.006 5.936-13.623 7.687-18.488 1.849-5.838 4.476-11.677 6.325-15.569 2.141-3.99 5.644-15.569 5.644-18.488 0-1.654 0.749-4.476 1.654-6.228l1.654-3.211-1.946-1.751c-2.335-2.141-19.461-9.147-22.38-9.147-1.070 0.005-3.892-0.973-6.228-2.238s-4.865-2.238-5.546-2.238c-0.74 0-2.822-0.74-4.573-1.654-6.325-3.211-11.677-5.157-13.623-5.157-1.168 0-4.671-1.168-7.784-2.725-3.114-1.46-6.909-3.114-8.466-3.6-1.557-0.477-3.406-1.265-4.087-1.849-0.691-0.545-4.184-1.946-7.784-3.016l-6.519-2.043 2.627-1.265c4.184-1.946 13.623-5.254 17.515-6.13 15.569-3.308 17.515-4.281 17.515-8.855 0-2.919-3.6-14.596-5.546-18.488-0.535-0.963-1.362-3.406-1.751-5.449-0.448-2.043-1.557-5.157-2.433-6.811s-1.557-4.671-1.557-6.714c-0.004-2.043-0.448-3.892-0.973-4.281-0.545-0.341-1.265-2.627-1.654-5.060s-1.46-5.936-2.433-7.687c-0.944-1.849-1.751-3.892-1.751-4.573-0.004-0.71-0.769-2.725-1.751-4.573-0.934-1.751-1.751-5.157-1.751-7.492-0.004-2.335-0.457-4.476-0.973-4.865-0.555-0.341-1.362-2.53-1.849-4.865-0.438-2.335-1.168-4.768-1.654-5.449-0.778-1.070-4.671-12.65-4.671-13.623 0-0.282 1.168-0.778 2.53-1.070 1.362-0.331 6.909-2.238 12.65-4.281 5.352-2.043 12.65-4.281 15.569-5.060 5.546-1.265 10.704-2.822 28.218-9.049 2.822-0.973 6.033-2.238 7.103-2.919 1.070-0.623 3.406-1.168 5.254-1.168 1.751 0 6.811-1.362 10.704-2.919 4.281-1.654 9.633-3.503 11.677-4.087 2.238-0.642 4.476-1.557 5.157-2.141 0.662-0.535 3.503-1.265 6.228-1.654 2.822-0.389 6.13-1.070 7.298-1.557 1.265-0.477 5.838-2.043 10.704-3.406 4.379-1.46 9.536-3.308 11.677-4.184 1.946-0.876 4.379-1.557 5.352-1.557 0.963 0 2.043-0.516 2.433-1.168 0.389-0.623 1.946-1.168 3.503-1.168 2.238 0 2.919 0.73 3.503 3.406zM501.392 223.402c-4.087 1.557-9.147 3.406-11.677 3.99-2.238 0.642-4.476 1.654-5.060 2.238-0.594 0.564-2.627 1.070-4.476 1.070-3.6 0-17.515 4.281-19.461 5.838-0.594 0.525-1.849 0.963-2.822 0.963s-3.211 0.759-4.963 1.654c-1.751 0.915-5.741 2.043-8.855 2.433-3.114 0.409-5.936 1.168-6.228 1.751-0.341 0.545-1.654 0.973-2.919 0.973s-3.892 0.71-5.936 1.557c-1.946 0.866-7.201 2.725-11.677 4.087-4.379 1.362-8.466 3.016-9.049 3.503-0.594 0.555-3.016 0.973-5.352 0.973s-4.573 0.525-4.963 1.168c-0.399 0.642 0.341 4.184 1.654 7.979 1.265 3.698 2.335 7.59 2.335 8.563 0 2.335 6.909 23.353 8.174 25.299 0.535 0.594 0.963 1.849 0.973 2.822 0.003 0.973 0.769 3.211 1.751 5.060 0.934 1.751 1.654 4.671 1.654 6.325 0 2.919 3.6 14.596 5.546 18.488 0.535 0.963 1.362 3.406 1.751 5.449 0.448 2.043 1.557 5.157 2.433 6.811s1.557 4.379 1.654 5.936c0.014 1.557 0.74 4.865 1.654 7.395 0.885 2.53 1.168 4.768 0.555 4.963-0.574 0.204-1.070 1.362-1.070 2.53 0 1.557 0.798 2.141 2.822 2.141 1.557 0 3.795 0.496 4.865 1.070 1.070 0.603 4.573 2.141 7.687 3.406s6.617 2.822 7.687 3.503c2.725 1.557 11.677 4.476 12.65 4.476 0.788 0.009 3.114-1.557 5.157-3.503s5.449-4.865 7.492-6.519l3.795-2.919 27.245-0.088 7.784 7.59 2.725-3.795c1.46-2.043 3.698-5.546 4.768-7.784 1.168-2.238 3.406-5.352 4.963-7.006s3.99-5.060 5.254-7.59c1.362-2.53 4.671-7.687 7.298-11.677 5.157-7.59 5.449-9.73 1.849-16.542-0.876-1.654-1.557-3.892-1.557-4.963-0.004-1.070-0.516-2.238-1.168-2.627-0.623-0.389-1.168-1.46-1.168-2.433 0-0.963-0.71-3.406-1.557-5.352-0.876-1.946-2.433-7.395-3.503-11.677-1.070-4.671-2.627-9.73-3.503-11.677-0.885-1.849-1.557-3.99-1.557-4.768 0-0.798-0.594-2.919-1.362-4.671-3.114-7.687-5.449-14.596-5.449-16.542-0.080-4.963-9.73-31.138-11.677-31.138-0.73 0.046-4.671 1.362-8.757 2.919zM481.931 379.090c-1.751 0.973-4.184 1.751-5.254 1.751-2.335 0-7.979 4.184-7.979 5.838 0 0.613 2.433 2.141 5.449 3.406l8.952 3.892c1.946 0.885 4.865 1.654 6.519 1.654 1.557 0 3.211 0.516 3.6 1.168 1.557 2.53 6.13 1.070 9.633-3.114 4.671-5.644 4.573-9.633-0.156-12.65-4.671-3.308-15.569-4.184-20.434-1.557zM458.578 408.281c-0.642 1.654-1.654 5.644-2.335 8.855-0.632 3.114-1.557 6.714-2.141 7.979-6.033 13.623-7.979 18.488-7.979 20.434 0 0.924-2.627 7.006-5.741 13.623-3.211 6.519-5.546 12.65-5.157 13.623 0.321 0.837 2.53 3.016 4.963 4.768 5.838 4.379 15.569 14.596 17.515 18.488 1.168 2.043 3.211 4.963 4.671 6.519 2.335 2.725 7.395 12.65 7.395 13.623 0 0.467 1.265 3.503 2.725 6.714 5.449 11.677 7.395 22.38 7.492 39.895 0.037 7.59 0.516 14.596 1.070 14.596 1.265 0.769 3.503-1.849 7.687-8.855 1.849-3.016 4.184-6.909 5.157-8.563 1.070-1.654 1.946-3.99 1.946-5.060 0.072-1.751 1.946-6.714 5.838-14.596 3.211-7.103 4.963-15.569 5.838-28.218 0.535-8.174 1.46-20.434 2.043-26.272 0.594-6.617 1.070-24.326 1.168-39.895 0.054-24.326-0.185-28.218-1.557-28.218-0.905 0-2.043 0.778-2.627 1.751-0.973 1.751-3.892 1.265-10.704-1.751-1.265-0.525-3.795-1.265-5.644-1.654-1.849-0.399-6.519-2.141-10.704-3.892-17.515-8.368-19.461-8.563-21.407-3.795zM390.465 563.969c-6.228 3.016-12.65 9.73-13.623 14.596-0.331 1.557-1.070 4.379-1.654 6.325-1.362 4.379-1.46 14.596-0.117 15.569 0.545 0.331 1.265 2.53 1.654 4.768 0.701 4.281 5.741 10.704 8.368 10.704 0.817 0 1.46 0.71 1.46 1.557 0 1.654 6.519 5.254 9.536 5.254 0.963 0 2.043 0.516 2.433 1.168 0.866 1.362 13.623 1.557 14.596 0.146 0.341-0.545 2.043-1.265 3.795-1.654 1.751-0.35 4.573-1.946 6.325-3.6s3.6-2.919 4.184-2.919c1.654 0 7.882-9.147 7.882-11.677 0-1.46-1.168-2.238-4.281-2.725-6.422-0.973-11.677-3.892-18.488-10.704-8.757-8.271-10.704-12.65-10.704-21.407 0-5.060-0.438-6.909-1.751-7.395-2.53-0.973-2.725-0.934-8.855 2.141zM407.98 562.899c-0.36 0.954-0.311 3.114 0.117 4.865s1.070 4.865 1.362 7.103c0.448 3.016 2.238 5.546 7.59 10.704 3.892 3.698 7.979 6.519 9.341 6.519s2.919 0.555 3.6 1.265c0.681 0.681 2.433 1.070 3.892 0.856 2.238-0.321 2.725-1.168 3.016-4.963 0.448-6.033-1.946-11.677-8.076-18.488-6.714-7.492-19.461-12.65-20.434-7.882z" />
<glyph unicode="&#xe92a;" glyph-name="guide7" horiz-adv-x="717" d="M16.814 415.093l0.282 340.567h681.134l0.564-681.134h-681.134l0.282 340.567zM522.799 132.908c7.298 1.654 16.542 6.519 22.38 11.677 5.644 4.963 12.65 17.515 14.596 26.272 0.808 3.892 1.070 77.844 0.876 233.532l-0.311 223.801-4.573 9.73c-3.698 8.174-5.741 10.704-10.704 15.569-3.503 3.016-9.341 7.006-12.65 8.66l-6.617 3.114-233.532 0.603-3.503-4.281c-1.946-2.335-4.379-5.157-5.546-6.228-12.65-11.677-34.057-35.030-35.030-36.976-0.331-0.963-2.919-3.406-5.644-5.449-2.822-2.043-5.936-5.060-7.006-6.811-1.751-2.822-11.677-13.623-31.138-33.084-4.087-4.087-8.368-8.855-9.633-10.704-1.265-1.557-3.503-3.698-4.963-4.768-1.46-0.973-3.6-3.211-4.671-4.865s-6.909-8.076-12.65-14.596l-10.704-10.704 0.642-369.759 2.725-5.060c1.46-2.822 3.795-6.617 5.157-8.466s3.211-4.865 4.087-6.617c0.905-1.751 3.698-4.281 6.228-5.546s5.449-3.016 6.422-3.99c1.070-0.915 4.865-2.627 8.466-3.795 6.325-2.043 13.623-2.141 165.418-2.141 97.305-0.020 165.418 0.379 165.418 1.070zM201.693 152.369c-7.103 2.822-13.623 8.466-16.542 13.623l-2.627 5.644-0.584 330.837 55.464 0.025c50.599 0.023 55.464 0.185 59.356 2.043 6.422 2.919 11.677 7.59 14.596 12.65 2.433 4.573 2.53 5.449 3.114 65.194l0.564 60.329 107.035 0.321c75.898 0.234 107.035-0.034 107.035-0.973 3.211-0.866 7.006-3.406 11.677-7.687 5.741-5.449 6.811-7.103 7.492-11.677 0.389-2.822 0.555-107.035 0.37-233.532-0.292-204.34-0.545-233.532-2.043-233.532-2.238-3.99-11.677-10.704-17.515-12.65-3.99-1.46-27.245-1.654-165.418-1.557-107.035 0.046-165.418 0.477-165.418 1.168zM483.877 259.405v9.049l-233.532 0.584v-19.266l233.532 0.584v9.049zM484.208 310.976l0.331 9.341h-233.532v-19.266l233.532 0.584 0.331 9.341zM483.877 363.521v9.049l-233.532 0.584v-9.536c0-5.352 0.496-9.73 1.168-9.73 0.623-0.204 54.491-0.126 116.766 0.185l116.766 0.564v9.049zM484.208 415.093l0.331 9.341h-233.532v-19.266l233.532 0.584 0.331 9.341zM484.208 465.691l0.331 9.341h-233.532v-19.266l233.532 0.584 0.331 9.341zM182.563 533.805c0 0.594 20.434 23.353 28.218 30.165 2.919 2.919 6.811 6.909 21.407 22.38 6.519 6.909 14.596 15.569 18.488 19.461 3.698 3.892 11.677 12.65 17.515 18.488 14.596 15.569 22.38 23.353 24.326 23.353 1.46 0 1.168-107.035-0.282-107.035-2.53-7.201-1.362-7.006-58.383-7.006-28.218 0-51.572 0.321-51.572 0.701z" />
<glyph unicode="&#xe92b;" glyph-name="guide8" horiz-adv-x="717" d="M16.814 385.901v340.567h681.134v-681.134h-681.134v340.567zM367.111 152.369c7.979 0.652 20.434 2.433 27.245 3.892 7.103 1.557 15.569 3.211 19.461 3.795 3.406 0.574 9.73 2.433 13.623 4.087 4.379 1.654 10.704 3.892 13.623 5.060 6.714 2.238 19.461 7.882 26.272 11.677 2.141 1.168 6.228 3.308 8.952 4.671s7.006 3.892 9.439 5.644 4.963 3.211 5.449 3.211c1.362 0 24.326 16.542 30.165 22.38 17.515 15.569 38.922 40.868 45.733 52.545 0.876 1.654 4.281 7.006 7.492 11.677 3.211 4.963 6.228 10.704 6.714 11.677 0.477 1.557 3.308 7.882 6.325 13.623 3.016 6.228 5.838 13.623 6.228 15.569 0.428 2.53 1.751 7.006 3.016 9.73 8.076 20.434 11.677 53.518 8.952 91.467-1.362 22.38-2.627 29.191-9.147 49.625-1.946 6.13-3.503 11.677-3.503 12.65 0 0.671-2.238 5.838-4.963 11.677-2.725 5.644-6.228 12.65-7.784 16.542-1.557 3.406-5.157 9.73-8.076 13.623-2.919 4.281-5.254 8.271-5.254 8.757 0 0.555-2.53 4.281-5.644 8.271s-5.644 7.59-5.644 8.076c0 0.428-2.433 3.406-5.352 6.519-2.919 3.211-7.201 7.784-9.341 10.704-2.238 2.433-4.865 5.254-5.838 6.13-0.973 0.934-3.114 2.919-4.768 4.476-1.557 1.557-4.671 4.476-6.811 6.519-7.979 7.687-40.868 31.138-43.787 31.138-0.506 0-2.919 1.46-5.352 3.211s-6.325 3.892-8.66 4.573c-2.335 0.769-6.325 2.53-8.952 3.99s-8.855 3.99-13.623 5.644c-4.963 1.654-9.536 3.406-9.73 3.892-1.46 1.168-11.677 4.379-18.488 5.644-2.822 0.545-10.704 2.433-18.488 4.184-13.623 3.114-14.596 3.211-47.679 3.114-33.084-0.017-34.057-0.097-46.706-3.114-7.103-1.751-15.569-3.6-19.461-4.184-3.406-0.603-9.049-2.141-12.65-3.406-3.406-1.265-11.677-4.087-17.515-6.325-6.228-2.238-11.677-4.671-12.65-5.546-0.963-0.837-3.795-2.238-6.228-3.114-7.687-2.822-24.326-12.65-42.814-25.299-13.623-9.536-43.787-38.922-48.652-47.679-0.642-1.070-3.6-5.157-6.519-9.049s-5.352-7.59-5.352-8.174c0-0.623-1.557-3.016-3.406-5.352s-3.406-4.573-3.406-5.060c0-0.418-1.168-2.335-2.725-4.379-1.46-1.946-3.114-4.865-3.503-6.422-0.467-1.557-3.016-7.103-5.644-12.65-3.99-7.979-11.677-29.191-16.542-46.706-3.892-13.623-5.352-62.275-2.53-88.547 1.654-16.542 2.822-21.407 8.076-36.003 1.946-5.546 4.281-12.65 5.157-15.569 0.876-3.211 3.6-9.341 5.936-13.623 2.433-4.379 4.671-9.147 5.060-10.704 0.379-1.557 3.503-7.006 6.909-11.677 3.406-5.157 6.228-9.73 6.228-9.73 0-0.418 2.433-3.99 5.352-7.882s6.422-8.563 7.59-10.704c3.211-4.476 15.569-18.488 17.515-20.434 1.168-0.934 2.919-2.627 3.99-3.795 6.033-7.006 31.138-26.272 43.787-34.057 8.174-4.963 17.515-9.73 23.353-12.65 2.822-1.362 8.174-3.795 11.677-5.644 3.698-1.751 9.049-3.795 11.677-4.573 2.822-0.74 6.617-2.043 8.466-2.919 6.811-3.114 13.623-5.254 21.407-6.617 4.379-0.788 13.623-2.53 19.461-3.795 20.434-4.184 39.895-5.254 61.302-3.503zM435.225 346.979c-7.882 1.557-20.434 8.855-27.245 15.569-7.979 8.271-10.704 13.623-14.596 27.245-1.46 5.741-0.477 21.407 1.751 26.272 0.915 2.141 2.335 5.644 3.114 7.784 2.919 8.076 21.407 23.353 31.138 26.272 6.228 1.751 27.245 1.849 33.084 0.063 6.617-1.849 15.569-7.59 23.353-14.596 5.449-5.157 7.298-7.882 10.704-16.542 3.698-8.952 4.184-11.677 4.184-19.461-0.010-8.174-0.545-10.704-3.698-18.488-4.184-10.704-3.99-13.623 0.973-15.569 4.184-2.141 4.184-3.308 0.263-7.201-1.751-1.751-3.892-4.476-4.768-6.228-3.406-6.325-7.784-6.13-12.65 0.457-3.016 4.184-4.184 4.184-11.677 0.107-9.536-5.254-23.353-7.006-35.030-4.573zM454.686 373.251c0.457 0.457-1.557 3.114-4.476 5.838s-5.352 5.741-5.352 6.714c0 1.946 8.271 11.677 11.677 12.65 1.46 0.798 3.503-0.165 8.563-4.087l6.617-5.157 0.35 7.687c0.195 4.184 0.035 9.341-0.35 11.677-0.856 4.671-7.103 11.677-12.65 14.596-5.449 2.627-17.515 2.725-22.38 0.253-5.157-2.725-11.677-9.73-12.65-14.596-1.751-6.13-1.265-18.488 0.895-22.38 2.335-4.865 9.73-11.677 14.596-13.623 3.503-1.168 14.596-0.788 15.569 0.496zM191.963 348.925c-1.070 0.448-1.362 11.677-1.362 50.599v50.599h81.736v-25.299h-52.545l-0.701-3.698c-0.379-2.043-0.535-5.741-0.331-8.174l0.36-4.476 46.706-1.129 0.642-23.353h-23.353c-23.353 0-23.353-0.009-24.326-2.53-0.37-1.362-0.691-9.536-0.701-18.488l-0.016-15.569-12.65 0.090c-7.006 0.049-13.623 0.341-13.623 0.662zM278.564 349.081c-1.751 1.168 1.46 11.677 6.325 20.434 1.849 3.503 4.476 9.439 5.741 13.623 1.265 3.795 4.281 10.704 6.617 16.542 2.433 5.157 4.963 11.677 5.741 13.623 0.798 2.53 3.6 8.855 6.228 13.623 2.627 5.254 5.157 11.677 5.644 13.623 0.467 2.141 1.557 5.352 2.433 7.103l1.557 3.114 27.245-0.642 3.308-8.466c1.849-4.671 5.449-12.65 8.076-18.488 2.627-5.546 5.157-11.677 5.546-13.623 0.409-1.751 3.211-8.466 6.228-14.596 3.016-6.325 5.838-12.65 6.325-14.596 0.438-1.751 3.503-8.855 6.811-15.569 3.308-6.909 6.033-13.623 6.033-14.596 0-1.654-1.654-1.946-13.623-1.849-7.59 0.009-14.596 0.389-14.596 0.847-0.623 0.457-2.919 4.379-5.060 8.757l-3.99 7.882-16.542 0.321c-19.461 0.37-21.407 0.049-22.38-3.406-0.438-1.362-2.043-5.157-3.6-8.466l-2.822-5.936-12.65 0.018c-6.909 0.009-13.623 0.409-13.623 0.885zM341.812 388.976c1.070 1.070-3.406 14.596-6.617 20.434-3.016 5.157-3.016 5.157-4.476 2.433-0.769-1.46-1.751-4.476-2.238-6.714-0.467-2.141-2.043-6.422-3.503-9.536-1.46-3.016-2.725-5.741-2.725-5.838 0-1.168 18.488-2.043 19.461-0.915z" />
<glyph unicode="&#xe92c;" glyph-name="location-pin1" horiz-adv-x="717" d="M249.373 103.717c-214.071 330.837-262.723 515.716-175.149 671.404 87.574 145.957 321.106 204.34 467.064 107.035 165.418-116.766 194.61-282.184 87.574-496.255-66.167-136.227-252.993-428.142-272.454-428.142-7.979 0-59.356 68.113-116.766 145.957zM463.443 502.667c50.599 27.245 83.682 136.227 60.329 204.34-55.464 145.957-262.723 145.957-311.376 0-22.38-60.329 8.855-175.149 56.437-194.61 42.814-25.299 155.688-25.299 194.61-0.895z" />
<glyph unicode="&#xe92d;" glyph-name="next" horiz-adv-x="717" d="M18.76 424.823v340.567h681.134v-681.134h-681.134v340.567zM300.944 346.979l62.275 48.652v36.976l-62.275 48.652-72.979 56.437-11.677 8.466 0.487-35.030 62.275-47.679c34.057-26.272 60.329-49.625 59.356-51.572-1.362-2.141-29.191-25.299-62.275-50.599l-59.356-46.706v-33.084l11.677 8.466c6.228 4.671 38.922 30.165 72.979 56.437zM446.901 346.979l62.275 48.652v36.976l-62.275 48.652-72.979 56.437-11.677 8.466 0.487-35.030 62.275-47.679c34.057-26.272 60.329-49.625 59.356-51.572-1.362-2.141-29.191-25.299-62.275-50.599l-59.356-46.706v-33.084l11.677 8.466c6.228 4.671 38.922 30.165 72.979 56.437z" />
<glyph unicode="&#xe92e;" glyph-name="prev" horiz-adv-x="717" d="M687.245 424.823v330.837h-661.673v-661.673h661.673v330.837zM414.791 349.898l-59.356 46.706v35.030l59.356 46.706c33.084 25.299 64.221 49.625 70.060 54.491l10.704 8.076-0.467-33.084-59.356-45.733c-33.084-25.299-58.383-46.706-57.41-49.625 1.265-2.043 28.218-23.353 59.356-48.652l57.41-44.76v-31.138l-10.704 8.076c-5.936 4.476-37.949 29.191-70.060 54.491zM278.564 349.898l-59.356 46.706v35.030l59.356 46.706c33.084 25.299 64.221 49.625 70.060 54.491l10.704 8.076-0.467-33.084-59.356-45.733c-33.084-25.299-58.383-46.706-57.41-49.625 1.265-2.043 28.218-23.353 59.356-48.652l57.41-44.76v-31.138l-10.704 8.076c-5.936 4.476-37.949 29.191-70.060 54.491z" />
<glyph unicode="&#xe92f;" glyph-name="selling-icon" horiz-adv-x="717" d="M113.146 259.405v262.723l15.569 12.65c8.563 7.006 16.542 12.65 17.515 12.65 1.265 0 2.335-126.496 2.335-282.184v-282.184h-35.030v262.723zM317.486 201.995v204.34h233.532v-408.681h-33.084v389.22h-161.526v-389.22h-35.030v204.34zM15.841 523.101v30.165l126.496 107.035 264.669 244.235 76.871-66.167c41.841-36.003 107.035-90.494 145.957-116.766l65.194-55.464 0.243-29.191c0.136-16.542-0.662-29.191-1.751-29.191-2.627 0-89.521 72.979-107.035 90.494-7.784 7.59-18.488 16.542-24.326 18.488-5.449 2.822-11.677 8.076-14.596 11.677-2.627 3.6-33.084 30.165-67.14 59.356l-62.275 52.545-7.298-6.422c-3.99-3.503-72.006-64.221-155.688-136.227-79.79-71.033-145.957-126.496-145.957-136.227 0-1.849-2.238-3.308-5.060-3.308-2.725 0-9.73-5.449-15.569-12.65-5.936-6.714-14.596-13.623-18.488-16.542-4.184-2.238-7.59-7.103-7.59-10.704 0-3.698-3.114-7.784-6.909-8.952s-12.65-7.006-20.434-12.65c-7.395-5.838-14.596-10.704-16.542-10.704-1.654 0-3.114 13.623-3.114 30.165zM619.131 620.406c0 1.946 1.654 3.6 3.6 3.6s3.6-1.654 3.6-3.6-1.654-3.6-3.6-3.6-3.6 1.654-3.6 3.6zM113.146 756.633v96.332h97.305v-99.251l-35.030-35.030v105.089h-25.299v-128.442l-35.030-35.030v96.332z" />
<glyph unicode="&#xe930;" glyph-name="arrow-down" horiz-adv-x="717" d="M190.99 376.171l-175.149 155.688 91.467 5.838 116.766-107.035c64.221-57.41 126.496-107.035 136.227-107.035 9.633 0 70.060 46.706 136.227 107.035l116.766 107.035 91.467-5.838-165.418-155.688c-107.035-87.574-184.879-155.688-184.879-155.688l-165.418 145.957z" />
<glyph unicode="&#xe931;" glyph-name="arrow-left" horiz-adv-x="717" d="M346.677 201.022l-214.071 243.262 214.071 243.262 223.801 243.262 8.368-130.389-145.957-165.418c-81.736-91.467-145.957-175.149-145.957-194.61 0-13.623 67.14-97.305 145.957-194.61l145.957-165.418-8.368-130.389-214.071 243.262z" />
<glyph unicode="&#xe932;" glyph-name="arrow-right" horiz-adv-x="717" d="M171.529 16.142c0 60.329 5.838 70.060 145.957 233.532 81.736 91.467 145.957 175.149 145.957 194.61 0 13.623-67.14 97.305-145.957 194.61l-145.957 155.688v68.113l9.73 63.248 214.071-252.993 223.801-233.532-214.071-243.262c-126.496-136.227-223.801-204.34-223.801-204.34-3.503 0-6.325 28.218-6.325 63.248z" />
<glyph unicode="&#xe933;" glyph-name="arrow-up" horiz-adv-x="717" d="M15.841 269.135c0 2.433 75.898 72.006 165.418 155.688l165.418 145.957 330.837-311.376-91.467-5.838-97.305 107.035c-58.383 58.383-126.496 107.035-136.227 107.035-9.536 0-69.086-46.706-136.227-107.035-107.035-97.305-116.766-107.035-155.688-107.035-24.326 0-43.787 1.946-43.787 4.379z" />
<glyph unicode="&#xe934;" glyph-name="C1" horiz-adv-x="717" d="M307.755 35.603c-58.383 9.73-126.496 48.652-184.879 97.305-175.149 184.879-126.496 496.255 107.035 613.021 155.688 68.113 340.567 29.191 447.603-116.766l27.245-37.949-56.437-55.464c-44.76-44.76-57.41-53.518-63.248-42.814-48.652 87.574-107.035 126.496-194.61 126.496-194.61 0-282.184-214.071-155.688-369.759 82.709-97.305 252.993-88.547 330.837 17.515l30.165 41.841 53.518-52.545c29.191-29.191 53.518-57.41 53.518-62.275 0-5.352-20.434-31.138-46.706-56.437-90.494-91.467-214.071-126.496-340.567-107.035z" />
<glyph unicode="&#xe935;" glyph-name="C2" horiz-adv-x="717" d="M482.904 162.1c-38.922 38.922-48.652 48.652-38.922 58.383 77.844 48.652 116.766 107.035 116.766 184.879 0 165.418-204.34 252.993-340.567 145.957-89.521-75.898-80.763-233.532 16.542-301.645l37.949-27.245-48.652-48.652c-26.272-27.245-52.545-48.652-57.41-48.652-4.963 0-28.218 19.461-51.572 41.841-136.227 136.227-136.227 340.567-9.73 476.794 175.149 165.418 457.333 116.766 554.638-97.305 56.437-116.766 39.895-252.993-42.814-350.298-18.488-23.353-82.709-75.898-92.44-75.898-1.557 0-25.299 22.38-52.545 50.599z" />
<glyph unicode="&#xe936;" glyph-name="C3" horiz-adv-x="717" d="M288.295 84.256c-50.599 9.73-116.766 45.733-165.418 89.521-136.227 126.496-136.227 350.298 1.946 476.794 25.299 23.353 49.625 42.814 55.464 42.814 9.73 0 107.035-91.467 107.035-97.305 0-3.016-4.671-5.449-10.704-5.449-18.488 0-78.817-60.329-96.332-95.359-13.623-28.218-16.542-44.76-13.623-90.494 2.433-47.679 6.325-61.302 25.299-88.547 89.521-126.496 252.993-126.496 340.567 0 19.461 27.245 23.353 40.868 25.299 88.547 2.335 45.733-0.146 62.275-13.623 90.494-15.569 32.111-57.41 76.871-88.547 94.386-13.623 7.492-11.677 10.704 19.461 42.814 18.488 19.461 42.814 41.841 54.491 49.625l20.434 14.596 45.733-42.814c136.227-126.496 136.227-350.298 0.895-476.794-87.574-80.763-194.61-107.035-311.376-88.547z" />
<glyph unicode="&#xe937;" glyph-name="C4" horiz-adv-x="717" d="M249.373 55.064c-24.326 6.714-63.248 22.38-86.601 35.030-41.841 22.38-136.227 107.035-136.227 126.496 0 10.704 97.305 116.766 107.035 116.766 3.308 0 6.033-5.157 6.033-11.677 0-20.434 66.167-86.601 107.035-107.035 31.138-14.596 48.652-17.515 97.305-15.569 52.545 2.627 67.14 7.006 97.305 28.218 87.574 58.383 126.496 145.957 107.035 233.532-19.461 48.652-48.652 97.305-107.035 136.227-29.191 19.461-38.922 29.191-97.305 29.191-50.599 2.53-69.086-0.165-97.305-14.596-35.030-17.515-84.655-63.248-107.035-97.305-8.271-14.596-11.677-12.65-47.679 21.407-16.542 29.191-40.868 58.383-49.625 68.113l-16.542 19.461 46.706 48.652c145.957 155.688 379.489 155.688 525.446 9.73 77.844-97.305 116.766-204.34 97.305-311.376-29.191-223.801-243.262-369.759-447.603-311.376z" />
<glyph unicode="&#xe938;" glyph-name="time" horiz-adv-x="717" d="M278.564 93.986c-97.305 29.191-165.418 87.574-214.071 184.879-29.191 68.113-30.165 184.879 0.973 252.993 22.38 50.599 29.191 55.464 45.733 35.030 7.882-9.439 6.033-22.38-7.784-52.545-27.245-59.356-25.299-165.418 3.503-223.801 84.655-184.879 311.376-233.532 457.333-94.386 116.766 107.035 116.766 311.376 2.53 418.411-107.035 97.305-272.454 107.035-389.22 7.979-27.245-23.353-56.437-26.272-56.437-6.325 0 12.65 60.329 62.275 97.305 81.736 204.34 107.035 447.603-33.084 476.794-262.723 11.677-116.766-52.545-243.262-165.418-311.376-64.221-39.895-175.149-53.518-252.993-31.138zM414.791 327.518l-68.113 58.383v107.035c-0.253 107.035 0.71 107.035 17.515 107.035 17.515 0 18.488-6.033 18.488-97.305v-97.305l57.41-48.652 65.194-55.464c8.076-6.811-9.147-36.003-20.434-35.030-3.114 0.253-35.030 26.272-72.006 57.41z" />
<glyph unicode="&#xe939;" glyph-name="email" horiz-adv-x="717" d="M17.787 376.171c0 136.227 3.114 243.262 7.006 243.262 3.795 0 78.817-64.221 165.418-145.957 87.574-77.844 165.418-145.957 175.149-145.957 6.617 0 76.871 57.41 155.688 126.496 78.817 70.060 155.688 136.227 165.418 145.957 19.461 15.569 20.434 2.627 20.434-223.801v-243.262h-681.134v243.262zM222.127 492.936c-68.113 58.383-136.227 116.766-145.957 136.227-25.299 19.461-20.434 19.461 282.184 19.461l311.376-0.126-47.679-43.787c-97.305-107.035-252.993-233.532-252.993-233.532-5.449 0-68.113 50.599-136.227 116.766z" />
<glyph unicode="&#xe93a;" glyph-name="phone-icon" horiz-adv-x="717" d="M385.599 132.908c-107.035 58.383-262.723 214.071-321.106 330.837-60.329 126.496-57.41 165.418 18.488 243.262 34.057 34.057 70.060 62.275 80.763 62.275s39.895-42.814 65.194-94.386c44.76-91.467 45.733-95.359 20.434-126.496-38.922-42.814-20.434-87.574 71.033-175.149 81.736-77.844 126.496-91.467 155.688-53.518 9.73 11.677 28.218 22.38 39.895 22.38 35.030 0 175.149-87.574 175.149-107.035 0-10.704-27.245-46.706-60.329-79.79-73.952-73.952-126.496-77.844-243.262-20.434z" />
<glyph unicode="&#xe93b;" glyph-name="guide1" horiz-adv-x="717" d="M27.517 385.901v301.645h681.134v-603.29h-681.134v301.645zM212.397 259.405c17.515 16.542 31.138 33.084 31.138 36.976 0 8.271 5.352 7.979 18.488-1.168 19.461-13.623 50.599-14.596 75.898-1.46 31.138 15.569 44.76 37.949 44.76 72.979 0 51.572-35.030 82.709-87.574 78.817-32.111-2.725-49.625-14.596-64.221-43.787-13.623-27.245-13.623-46.706-1.265-71.033 11.677-23.353 11.677-22.38 3.6-22.38-3.503 0-20.434-14.596-37.949-32.111-27.245-27.245-30.165-33.084-25.299-39.895 3.503-4.184 7.687-7.687 9.341-7.687s16.542 13.623 34.057 31.138zM264.941 323.626c-33.084 30.165-25.299 78.817 16.542 96.332 37.949 15.569 75.898-9.73 75.898-52.545 0-27.245-9.73-43.787-32.111-52.545-25.299-10.704-39.895-8.466-59.356 9.147zM381.707 253.566h116.766l-0.428 126.496-61.302 45.733c-34.057 25.299-63.248 45.733-65.194 45.733-2.043-0.060-9.244-4.281-15.569-9.341l-11.677-9.244 16.542-13.623c19.461-16.542 35.030-47.679 35.030-71.033 0-52.545-52.545-97.305-107.035-92.44-16.542 2.141-20.434 0.467-33.084-12.65-9.73-10.704-11.677-14.596-4.963-11.677 4.963 1.751 62.275 3.211 126.496 3.211zM245.48 438.446c14.596 13.623 44.76 26.272 62.275 26.272 8.757 0.002 24.326 7.979 41.841 22.38 15.569 12.65 29.191 22.38 31.138 22.38 1.362 0 39.895-29.191 85.628-64.221l82.709-64.221 1.557 20.434c0.847 11.677 0.448 23.353-0.885 27.245-1.362 3.503-38.922 35.030-84.655 69.086-44.76 35.030-81.736 65.194-81.736 67.14 0 2.238-17.515-9.73-38.922-26.272l-86.601-68.113-47.679-36.976 0.564-54.491 11.677 24.326c6.228 13.623 16.542 29.191 23.353 36.003z" />
<glyph unicode="&#xe93c;" glyph-name="guide2" horiz-adv-x="717" d="M10.976 405.362v350.298h700.595v-700.595h-700.595v350.298zM536.422 142.639c7.59 3.795 12.65 8.757 16.542 16.542l2.627 4.865 0.302 204.34c0.341 233.532 1.070 214.071-8.271 223.801-7.979 10.704-10.704 10.704-46.706 11.677l-30.165 0.594-0.302 2.919c-1.070 10.704-1.946 12.65-6.228 19.461-7.492 11.677-9.73 12.65-40.868 12.65h-25.299l-0.924 7.492c-1.557 12.65-6.811 22.38-15.569 31.138-9.536 8.66-16.542 11.677-30.165 11.677-15.569 0.146-23.353-2.627-32.111-11.677-9.633-9.147-14.596-19.461-15.569-35.030l-0.282-3.503-18.488 0.438c-11.677 0.272-21.407-0.107-27.245-0.973-7.687-1.265-9.147-2.043-14.596-6.714-6.033-5.644-7.882-9.73-9.049-21.407l-0.652-6.422-31.138-0.632c-37.949-0.769-41.841-1.751-49.625-12.65-7.492-10.704-7.006 4.963-7.006-223.801l-0.051-204.34 4.087-7.979c3.503-6.714 5.254-8.757 11.677-12.65 3.99-2.627 8.271-5.060 9.536-5.352s82.709-0.594 184.879-0.662l175.149-0.136 7.103 3.503zM186.124 166.965c-6.325 3.114-11.677 9.73-12.65 17.515-0.924 4.281-1.168 57.41-0.934 184.879l0.36 184.879 2.627 4.865c3.406 6.325 6.617 9.341 12.65 11.677 4.476 1.946 7.492 2.141 26.272 1.946l21.407-0.311 0.72-9.925h233.532l0.72 9.925 18.488 0.321c10.704 0.185 20.434-0.214 23.353-0.934 5.838-1.557 13.623-8.368 16.542-14.596 2.043-4.476 2.141-12.65 2.043-194.61-0.047-136.227-0.409-184.879-1.46-184.879-1.946-5.157-9.244-12.65-14.596-14.596-3.698-1.557-23.353-1.751-165.418-1.751l-155.688 0.058-5.060 2.433zM279.537 274v21.407h-44.76l-0.321-20.434c-0.175-10.704-0.056-21.407 0.263-21.407 0.457-1.168 5.254-1.46 22.38-1.168l21.407 0.311v21.407zM238.669 274v17.515h38.922v-35.030h-38.922v17.515zM472.201 268.162v4.087l-151.796 0.603v-9.341l151.796 0.603v4.087zM267.86 365.467c0.467 5.838 1.168 7.784 3.795 10.704 1.751 1.849 3.211 3.892 3.211 4.573 0 0.671 2.53 3.6 5.546 6.519s6.519 6.617 7.687 8.368 3.892 3.99 6.13 4.963c2.141 1.070 3.99 2.238 3.99 2.725 0 0.457 1.751 1.849 3.99 3.211l3.99 2.335-1.751 4.963c-1.654 4.671-1.557 9.73 0.331 19.461 0.905 4.768-2.141 4.184-9.049-1.751-10.704-8.757-19.461-18.488-22.38-25.299l-2.335-4.768-22.38-0.282c-12.65-0.156-23.353-0.535-24.326-0.837-1.070-0.409-1.46-5.644-1.46-20.434 0-10.704 0.36-20.434 0.798-21.407 0.438-0.438 10.704-0.662 22.38-0.487l21.407 0.311 0.584 7.201zM226.019 379.090l0.321 18.488 6.228 0.35c7.492 0.428 7.59-1.070 0.302-6.033l-4.963-3.308 3.308-1.654c1.751-0.924 4.573-2.919 6.13-4.379s4.476-3.698 6.422-4.865 6.519-5.449 10.704-9.439l6.811-7.298h-35.030l0.321 18.488zM255.211 388.82c-5.157 8.368-4.963 8.952 2.627 8.952 6.13 0 6.422-0.117 6.422-3.114 0-3.114-3.406-11.677-4.573-11.677-0.36 0.017-2.335 2.725-4.379 6.13zM459.551 369.359c0.759 0.915 1.265 3.114 0.973 4.963l-0.37 3.308h-151.796l-0.379-3.308c-0.808-7.006-5.741-6.617 74.925-6.617 63.248 0 73.952 0.253 75.898 1.654zM264.941 466.664c0 5.838 0.457 7.201 3.503 10.704 1.946 2.141 3.503 4.281 3.503 4.768 0 0.516 2.53 3.6 5.644 6.811s6.422 6.811 7.298 8.076 3.698 3.698 6.228 5.352c12.65 8.271 11.677 7.882 9.73 12.65-1.557 4.379-1.46 9.439 0.438 20.434 0.954 5.352-1.654 4.963-8.855-1.46-3.211-2.919-6.325-5.254-6.811-5.254-0.535 0-2.238-1.946-3.892-4.379s-4.476-5.936-6.422-7.882-4.379-5.741-5.449-8.466-2.53-4.865-3.308-4.963c-0.73-0.039-10.704-0.011-22.38 0.063s-21.407-0.214-23.353-0.632c-1.751-0.681-2.043-2.919-2.043-20.434 0-10.704 0.35-20.434 0.778-20.434 0.428-0.428 10.704-0.778 22.38-0.778h21.407v6.714zM224.073 464.232c-0.428 0.428-0.778 8.563-0.778 17.515v17.515h5.838c3.211 0 5.838-0.516 5.838-1.168 0-0.632-2.043-2.53-4.671-4.184-5.060-3.308-5.936-5.060-2.433-5.060 1.168 0 4.768-2.335 7.979-5.254s6.228-5.254 6.811-5.254c0.545 0 3.99-3.406 7.784-7.59l6.714-7.59h-16.542c-8.855 0-16.542 0.35-16.542 0.778zM255.211 487.585c-2.433 3.503-6.13 10.704-6.13 11.677 0 0.35 2.919 0.642 6.422 0.642 5.936 0 6.422-0.185 6.422-2.822 0-1.557-0.973-4.963-2.141-7.687l-2.141-4.865-2.335 3.308zM459.551 472.016c1.557 3.99 0.74 7.395-1.946 8.076-1.46 0.35-36.003 0.487-75.898 0.311l-72.979-0.321-0.72-9.925h75.898c68.113 0 75.898 0.185 75.898 1.849zM333.055 627.704c-7.006 3.211-12.65 8.563-15.569 15.569-3.211 6.714-3.406 10.704-1.168 18.488 1.654 5.449 7.882 13.623 13.623 17.515 3.795 2.53 12.65 3.698 20.434 2.725 5.838-0.73 7.201-1.46 13.623-7.201 5.546-5.254 6.909-7.395 7.882-11.677 2.725-12.65 0.302-21.407-7.298-28.218-9.73-8.563-20.434-10.704-31.138-6.13z" />
<glyph unicode="&#xea0f;" glyph-name="cross" d="M1014.662 137.34c-0.004 0.004-0.008 0.008-0.012 0.010l-310.644 310.65 310.644 310.65c0.004 0.004 0.008 0.006 0.012 0.010 3.344 3.346 5.762 7.254 7.312 11.416 4.246 11.376 1.824 24.682-7.324 33.83l-146.746 146.746c-9.148 9.146-22.45 11.566-33.828 7.32-4.16-1.55-8.070-3.968-11.418-7.31 0-0.004-0.004-0.006-0.008-0.010l-310.648-310.652-310.648 310.65c-0.004 0.004-0.006 0.006-0.010 0.010-3.346 3.342-7.254 5.76-11.414 7.31-11.38 4.248-24.682 1.826-33.83-7.32l-146.748-146.748c-9.148-9.148-11.568-22.452-7.322-33.828 1.552-4.16 3.97-8.072 7.312-11.416 0.004-0.002 0.006-0.006 0.010-0.010l310.65-310.648-310.65-310.652c-0.002-0.004-0.006-0.006-0.008-0.010-3.342-3.346-5.76-7.254-7.314-11.414-4.248-11.376-1.826-24.682 7.322-33.83l146.748-146.746c9.15-9.148 22.452-11.568 33.83-7.322 4.16 1.552 8.070 3.97 11.416 7.312 0.002 0.004 0.006 0.006 0.010 0.010l310.648 310.65 310.648-310.65c0.004-0.002 0.008-0.006 0.012-0.008 3.348-3.344 7.254-5.762 11.414-7.314 11.378-4.246 24.684-1.826 33.828 7.322l146.746 146.748c9.148 9.148 11.57 22.454 7.324 33.83-1.552 4.16-3.97 8.068-7.314 11.414z" />
<glyph unicode="&#xea10;" glyph-name="tick" d="M864 832l-480-480-224 224-160-160 384-384 640 640z" />
<glyph unicode="&#xea1c;" glyph-name="play" d="M192 832l640-384-640-384z" />
<glyph unicode="&#xea52;" glyph-name="tick-box" d="M896 960h-768c-70.4 0-128-57.6-128-128v-768c0-70.4 57.6-128 128-128h768c70.4 0 128 57.6 128 128v768c0 70.4-57.6 128-128 128zM448 165.49l-237.254 237.256 90.51 90.508 146.744-146.744 306.746 306.746 90.508-90.51-397.254-397.256z" />
</font>
</defs>
</svg>
